<!-- Generated by IcoMoon.io -->
<svg version="1.1" xmlns="http://www.w3.org/2000/svg" width="512" height="512" viewBox="0 0 512 512">
<title></title>
<g id="icomoon-ignore">
</g>
<path d="M116.049 395.764c12.333 12.21 19.969 29.144 19.969 47.861s-7.636 35.651-19.963 47.855l-0.005 0.005c-12.308 12.276-29.294 19.865-48.052 19.865s-35.745-7.59-48.054-19.867l0.002 0.002c-12.316-12.219-19.94-29.152-19.94-47.866s7.624-35.647 19.936-47.862l0.005-0.005c12.294-12.306 29.284-19.918 48.053-19.918s35.758 7.613 48.052 19.918l0.001 0zM116.049 395.764v0zM19.945 491.509v0 0zM0 174.103v97.745c0.081 0 0.177 0 0.274 0 66.111 0 125.938 26.906 169.129 70.365l0.012 0.012c43.425 43.272 70.296 103.135 70.296 169.273 0 0.115 0 0.231 0 0.346v-0.018 0.175h98.165c-0.009-93.274-37.898-177.696-99.121-238.723l-0.009-0.009c-60.983-61.257-145.376-99.165-238.624-99.165-0.042 0-0.084 0-0.126 0h0.006zM0.233 0v97.746c228.464 0.555 413.488 185.751 413.766 414.228v0.027h98.001c0-0.051 0-0.111 0-0.171 0-141.282-57.375-269.163-150.097-361.614l-0.012-0.012c-92.404-92.787-220.262-150.202-361.531-150.202-0.045 0-0.090 0-0.135 0h0.007z"></path>
</svg>
