<!-- Generated by IcoMoon.io -->
<svg version="1.1" xmlns="http://www.w3.org/2000/svg" width="512" height="512" viewBox="0 0 512 512">
<title></title>
<style type="text/css">
	path{fill:#003A9F;}
</style>
<g id="icomoon-ignore">
</g>
<path d="M256 8c-136.967 0-248 111.033-248 248s111.033 248 248 248 248-111.033 248-248-111.033-248-248-248zM256 472c-118.664 0-216-96.055-216-216 0-118.663 96.055-216 216-216 118.664 0 216 96.055 216 216 0 118.663-96.055 216-216 216zM397.63 197.039l-180.48 179.032c-4.705 4.667-12.303 4.637-16.97-0.068l-85.878-86.572c-4.667-4.705-4.637-12.303 0.068-16.97l8.52-8.451c4.705-4.667 12.303-4.637 16.97 0.068l68.976 69.533 163.441-162.13c4.705-4.667 12.303-4.637 16.97 0.068l8.451 8.52c4.668 4.705 4.637 12.303-0.068 16.97z"></path>
</svg>
