<!-- Generated by IcoMoon.io -->
<svg version="1.1" xmlns="http://www.w3.org/2000/svg" width="512" height="512" viewBox="0 0 512 512">
<title></title>
<style type="text/css">
	path{fill:#003A9F;}
</style>
<g id="icomoon-ignore">
</g>
<path d="M244.68 414.76c0.37 0.37 0.77 0.73 1.18 1.070l0.55 0.41c0.23 0.17 0.46 0.36 0.71 0.52s0.46 0.28 0.69 0.42l0.65 0.38c0.24 0.13 0.48 0.24 0.73 0.35s0.45 0.23 0.69 0.32 0.48 0.18 0.72 0.27l0.75 0.26c0.25 0.080 0.49 0.13 0.73 0.19s0.53 0.14 0.79 0.19 0.57 0.090 0.85 0.13 0.46 0.080 0.7 0.1c0.53 0.050 1.050 0.080 1.58 0.080s1.050 0 1.58-0.080c0.24 0 0.47-0.070 0.71-0.1s0.56-0.070 0.83-0.13 0.54-0.13 0.81-0.19l0.71-0.19c0.27-0.080 0.52-0.18 0.78-0.27l0.7-0.25 0.72-0.34c0.23-0.11 0.47-0.21 0.7-0.34s0.45-0.26 0.67-0.4 0.45-0.25 0.67-0.4 0.49-0.36 0.74-0.54 0.35-0.25 0.52-0.39c0.41-0.34 0.8-0.69 1.18-1.070l127.070-127.070c2.896-2.896 4.687-6.896 4.687-11.315 0-8.837-7.164-16.002-16.002-16.002-4.419 0-8.419 1.791-11.315 4.687l-99.76 99.77v-348.83c0-8.836-7.163-16-16-16s-16 7.163-16 16v0 348.83l-99.76-99.77c-2.896-2.896-6.896-4.687-11.315-4.687-8.838 0-16.002 7.164-16.002 16.002 0 4.419 1.791 8.419 4.687 11.315v0zM488.080 332.83c-8.837 0-16 7.163-16 16v0 131.17h-432.16v-131.17c0-8.837-7.163-16-16-16s-16 7.163-16 16v0 147.17c0 8.837 7.163 16 16 16v0h464.16c8.837 0 16-7.163 16-16v0-147.17c0-8.837-7.163-16-16-16v0z"></path>
</svg>
