<!-- Generated by IcoMoon.io -->
<svg version="1.1" xmlns="http://www.w3.org/2000/svg" width="512" height="512" viewBox="0 0 512 512">
<title></title>
<style type="text/css">
	path{fill:#003A9F;}
</style>
<g id="icomoon-ignore">
</g>
<path d="M256 8c-137 0-248 111-248 248s111 248 248 248 248-111 248-248-111-248-248-248zM377.6 321.1c4.7 4.7 4.7 12.3 0 17l-39.6 39.5c-4.7 4.7-12.3 4.7-17 0l-65-65.6-65.1 65.6c-4.7 4.7-12.3 4.7-17 0l-39.5-39.6c-4.7-4.7-4.7-12.3 0-17l65.6-65-65.6-65.1c-4.7-4.7-4.7-12.3 0-17l39.6-39.6c4.7-4.7 12.3-4.7 17 0l65 65.7 65.1-65.6c4.7-4.7 12.3-4.7 17 0l39.6 39.6c4.7 4.7 4.7 12.3 0 17l-65.7 65 65.6 65.1z"></path>
</svg>
