<!-- Generated by IcoMoon.io -->
<svg version="1.1" xmlns="http://www.w3.org/2000/svg" width="512" height="512" viewBox="0 0 512 512">
<title></title>
<style type="text/css">
	path{fill:#003A9F;}
</style>
<g id="icomoon-ignore">
</g>
<path d="M359.471 0h-206.941c-84.2 0.1-152.43 68.33-152.53 152.52v206.951c0.1 84.2 68.33 152.43 152.52 152.529h206.951c84.2-0.099 152.43-68.33 152.529-152.52v-206.951c-0.099-84.2-68.33-152.43-152.52-152.53h-0.010zM460.486 359.471c0 55.789-45.226 101.015-101.015 101.015v0h-206.941c-55.789 0-101.016-45.226-101.016-101.015v0-206.941c0-55.789 45.226-101.016 101.016-101.016v0h206.941c55.789 0 101.015 45.226 101.015 101.016v0 206.941zM256 123.578c-73.135 0-132.422 59.287-132.422 132.422s59.287 132.422 132.422 132.422c73.135 0 132.422-59.288 132.422-132.422v0c-0.086-73.1-59.322-132.335-132.413-132.422h-0.009zM256 336.92c-44.69 0-80.919-36.229-80.919-80.92s36.229-80.919 80.919-80.919c44.69 0 80.919 36.229 80.919 80.919v0c0 44.69-36.229 80.919-80.919 80.919v0zM420.41 124.579c0 17.526-14.207 31.733-31.733 31.733s-31.733-14.207-31.733-31.733c0-17.526 14.207-31.733 31.733-31.733s31.733 14.207 31.733 31.733z"></path>
</svg>
