<!-- Generated by IcoMoon.io -->
<svg version="1.1" xmlns="http://www.w3.org/2000/svg" width="392" height="512" viewBox="0 0 392 512">
<title></title>
<style type="text/css">
	path{fill:#003A9F;}
</style>
<g id="icomoon-ignore">
</g>
<path d="M371 208.4h-60v-95.9c0-62-50.4-112.5-112.5-112.5h-5.1c-62 0-112.4 50.5-112.4 112.5v95.9h-60c-8.8 0-16 7.2-16 16v271.6c0 8.8 7.2 16 16 16h350c8.8 0 16-7.2 16-16v-271.6c0-8.8-7.2-16-16-16zM113 112.5c0-44.4 36.1-80.5 80.5-80.5h5.1c44.4 0 80.5 36.1 80.5 80.5v95.9h-166.1v-95.9zM355 480h-318v-239.6h318v239.6zM196 313.4c-8.8 0-16 7.2-16 16v61.6c0 8.8 7.2 16 16 16s16-7.2 16-16v-61.6c0-8.9-7.2-16-16-16z"></path>
</svg>
