<!-- Generated by IcoMoon.io -->
<svg version="1.1" xmlns="http://www.w3.org/2000/svg" width="344" height="512" viewBox="0 0 344 512">
<title></title>
<style type="text/css">
	path{fill:#003A9F;}
</style>
<g id="icomoon-ignore">
</g>
<path d="M322.355 181.596h-13.84v-45.56c-0.002-4.417-1.794-8.416-4.69-11.31l-21.71-21.69c-2.896-2.896-6.896-4.687-11.315-4.687-8.837 0-16.002 7.165-16.002 16.002 0 4.419 1.791 8.419 4.687 11.315l17 17v38.89h-15.040c-10.397-26.695-31.671-47.18-58.228-56.29l-0.672-0.201c21.4-11.282 35.74-33.379 35.74-58.825 0-36.605-29.674-66.28-66.28-66.28s-66.28 29.674-66.28 66.28c0 25.446 14.34 47.543 35.379 58.651l0.361 0.174c-27.23 9.31-48.503 29.796-58.677 55.84l-0.224 0.65h-15v-38.85l17-17c2.692-2.856 4.346-6.716 4.346-10.962 0-8.837-7.163-16-16-16-4.219 0-8.056 1.632-10.915 4.301l0.010-0.008-21.72 21.72c-2.9 2.883-4.701 6.869-4.72 11.276v45.524h-13.91c-0.003 0-0.005 0-0.008 0-8.836 0-16 7.163-16 16 0 1.378 0.174 2.715 0.502 3.991l-0.024-0.111 19.52 79.070c1.779 7.041 8.058 12.17 15.535 12.17 0.002 0 0.004 0 0.005 0h13.749v187.36h-25.22c-8.837 0-16 7.163-16 16s7.163 16 16 16v0h284.58c8.837 0 16-7.163 16-16s-7.163-16-16-16v0h-25.22v-187.36h13.75c0.002 0 0.003 0 0.005 0 7.476 0 13.755-5.128 15.511-12.060l0.024-0.111 19.52-79.070c0.297-1.153 0.467-2.476 0.467-3.84 0-8.835-7.162-15.999-15.998-16v0zM172.005 32.036c18.933 0 34.28 15.348 34.28 34.28s-15.347 34.28-34.28 34.28c-18.933 0-34.28-15.347-34.28-34.28v0c0.023-18.923 15.357-34.257 34.278-34.28h0.002zM172.005 152.036c0.060 0 0.132-0 0.203-0 22.474 0 42.222 11.663 53.525 29.267l0.152 0.253h-107.76c11.452-17.857 31.2-29.52 53.671-29.52 0.073 0 0.147 0 0.22 0h-0.012zM257.075 480.036h-170.14v-187.36h170.14zM290.295 260.676h-236.58l-11.63-47.080h259.84z"></path>
</svg>
