<!-- Generated by IcoMoon.io -->
<svg version="1.1" xmlns="http://www.w3.org/2000/svg" width="512" height="512" viewBox="0 0 512 512">
<title></title>
<style type="text/css">
	path{fill:#003A9F;}
</style>
<g id="icomoon-ignore">
</g>
<path d="M19.72 468.945c-5.211 5.955-4.913 14.931 0.683 20.529l2.122 2.124c5.596 5.595 14.573 5.895 20.529 0.682l145.746-127.519-41.561-41.561-127.519 145.745zM495.284 180.715c-0.495-1.538-12.751-38.343-69.208-94.796-56.452-56.454-93.259-68.712-94.793-69.203-5.336-1.712-11.179-0.299-15.142 3.665l-56.351 56.35c-5.835 5.836-5.835 15.304 0 21.142l8.415 9.914-150.386 110.666c-3.403 2.625-5.51 6.589-5.787 10.877-0.274 4.289 1.311 8.49 4.35 11.53l154.759 154.761c3.043 3.039 7.245 4.623 11.53 4.348 4.291-0.277 8.254-2.384 10.88-5.787 69.562-102.216 105.362-153.322 107.399-153.322s6.431 3.784 13.181 11.352c5.832 5.838 15.301 5.838 21.139 0l56.351-56.349c3.964-3.968 5.378-9.811 3.665-15.147z"></path>
</svg>
