<!-- Generated by IcoMoon.io -->
<svg version="1.1" xmlns="http://www.w3.org/2000/svg" width="512" height="512" viewBox="0 0 512 512">
<title></title>
<style type="text/css">
	path{fill:#003A9F;}
</style>
<g id="icomoon-ignore">
</g>
<path d="M256 48.75c19.2 0 37.25 7.55 50.85 21.3 13.7 13.85 21.25 32.25 21.25 51.85s-7.55 38.050-21.25 51.85c-13.6 13.7-31.65 21.3-50.85 21.3s-37.25-7.55-50.85-21.3c-13.7-13.85-21.25-32.25-21.25-51.85s7.55-38.050 21.25-51.85c13.6-13.75 31.65-21.3 50.85-21.3zM256 0c-66.75 0-120.9 54.6-120.9 121.9 0 67.35 54.15 121.9 120.9 121.9s120.9-54.6 120.9-121.9c0-67.3-54.15-121.9-120.9-121.9v0zM340.7 341.35c17.6 0 39.3 10.2 56.65 26.65 8.8 8.35 16 17.85 20.8 27.45 4.4 8.75 6.7 17.4 6.7 25.1v42.7h-337.7v-42.75c0-7.55 2.35-16.1 6.75-24.75 4.9-9.65 12.25-19.15 21.2-27.55 17.75-16.6 39.8-26.9 57.6-26.9l168 0.050zM340.7 292.55v0h-167.95c-63.3 0-134.35 64.1-134.35 127.95v73.2c0 10.1 8.1 18.3 18.15 18.3h398.95c10 0 18.15-8.2 18.15-18.3v-73.2c-0.050-63.85-69.65-127.95-132.95-127.95v0z"></path>
</svg>
