<!-- Generated by IcoMoon.io -->
<svg version="1.1" xmlns="http://www.w3.org/2000/svg" width="512" height="512" viewBox="0 0 512 512">
<title></title>
<style type="text/css">
	path{fill:#003A9F;}
</style>
<g id="icomoon-ignore">
</g>
<path d="M145.605 132.875h54.77c4.97 0 9-4.030 9-9s-4.030-9-9-9v0h-76.5c-0.314 0-0.623 0.016-0.928 0.048l0.038-0.003-0.39 0.055-0.5 0.075c-0.15 0.030-0.295 0.070-0.44 0.11-0.169 0.034-0.308 0.070-0.445 0.113l0.030-0.008c-0.14 0.040-0.28 0.095-0.425 0.145s-0.27 0.095-0.405 0.15-0.255 0.12-0.385 0.18-0.275 0.125-0.415 0.2-0.235 0.14-0.355 0.21-0.27 0.155-0.4 0.24l-0.375 0.275c-0.11 0.085-0.22 0.16-0.33 0.25-0.215 0.18-0.425 0.365-0.625 0.565l-0.025 0.020-0.030 0.035c-0.2 0.2-0.385 0.41-0.565 0.625-0.090 0.105-0.165 0.22-0.245 0.33s-0.19 0.245-0.28 0.375-0.16 0.265-0.24 0.4-0.145 0.235-0.21 0.355-0.135 0.275-0.2 0.415-0.125 0.255-0.18 0.385-0.1 0.27-0.15 0.405-0.105 0.285-0.145 0.425-0.075 0.275-0.105 0.41-0.080 0.295-0.11 0.445-0.050 0.32-0.075 0.5-0.040 0.265-0.055 0.395c-0.028 0.267-0.045 0.576-0.045 0.89v0 76.5c0 4.97 4.029 9 9 9s9-4.030 9-9v0-54.785l84.21 84.195c1.614 1.548 3.809 2.501 6.226 2.501 4.97 0 9-4.030 9-9 0-2.417-0.953-4.613-2.504-6.23l0.003 0.003zM389.885 396.95c0.15-0.030 0.3-0.070 0.45-0.11s0.27-0.065 0.4-0.105 0.295-0.1 0.44-0.15 0.265-0.090 0.39-0.145 0.275-0.125 0.41-0.19l0.39-0.185c0.13-0.070 0.255-0.15 0.385-0.23s0.25-0.145 0.37-0.225 0.28-0.205 0.42-0.31 0.195-0.135 0.285-0.215c0.466-0.382 0.878-0.795 1.248-1.245l0.012-0.015c0.080-0.095 0.15-0.195 0.22-0.29s0.21-0.27 0.305-0.415 0.155-0.25 0.23-0.38 0.155-0.245 0.22-0.375c0.061-0.106 0.126-0.238 0.185-0.373l0.010-0.027c0.065-0.135 0.13-0.26 0.185-0.395s0.1-0.27 0.145-0.405c0.048-0.11 0.099-0.25 0.142-0.394l0.008-0.031c0.045-0.14 0.075-0.275 0.11-0.415s0.075-0.29 0.105-0.44 0.050-0.325 0.075-0.5 0.040-0.25 0.055-0.38c0.029-0.267 0.045-0.578 0.045-0.892 0-0.001 0-0.002 0-0.003v0-76.5c0-4.971-4.029-9-9-9s-9 4.029-9 9v0 54.785l-84.2-84.195c-1.614-1.548-3.808-2.501-6.226-2.501-4.971 0-9 4.029-9 9 0 2.418 0.953 4.613 2.504 6.229l84.192 84.197h-54.77c-4.971 0-9 4.029-9 9s4.029 9 9 9v0h76.5c0.313 0 0.623-0.017 0.928-0.048l-0.038 0.003c0.135 0 0.265-0.040 0.4-0.060s0.31-0.020 0.47-0.070z"></path>
</svg>
