<!-- Generated by IcoMoon.io -->
<svg version="1.1" xmlns="http://www.w3.org/2000/svg" width="512" height="512" viewBox="0 0 512 512">
<title></title>
<style type="text/css">
	path{fill:#D60C18;}
</style>
<g id="icomoon-ignore">
</g>
<path d="M238.5 36.5l7.1 7.1c4.7 4.7 4.7 12.3 0 17l-178.5 178.4h425.9c6.6 0 12 5.4 12 12v10c0 6.6-5.4 12-12 12h-425.9l178.5 178.5c4.7 4.7 4.7 12.3 0 17l-7.1 7.1c-4.7 4.7-12.3 4.7-17 0l-211.1-211.1c-4.7-4.7-4.7-12.3 0-17l211.1-211c4.8-4.7 12.3-4.7 17 0z"></path>
</svg>
