<!-- Generated by IcoMoon.io -->
<svg version="1.1" xmlns="http://www.w3.org/2000/svg" width="512" height="512" viewBox="0 0 512 512">
<title></title>
<style type="text/css">
	path{fill:#D60C18;}
</style>
<g id="icomoon-ignore">
</g>
<path d="M273.5 36.5l-7.1 7.1c-4.7 4.7-4.7 12.3 0 17l178.5 178.4h-425.9c-6.6 0-12 5.4-12 12v10c0 6.6 5.4 12 12 12h425.9l-178.5 178.5c-4.7 4.7-4.7 12.3 0 17l7.1 7.1c4.7 4.7 12.3 4.7 17 0l211.1-211.1c4.7-4.7 4.7-12.3 0-17l-211.1-211c-4.8-4.7-12.3-4.7-17 0z"></path>
</svg>
