<!-- Generated by IcoMoon.io -->
<svg version="1.1" xmlns="http://www.w3.org/2000/svg" width="512" height="512" viewBox="0 0 512 512">
<title></title>
<style type="text/css">
	path{fill:#D60C18;}
</style>
<g id="icomoon-ignore">
</g>
<path d="M38.43 497.22c0 0.24 0 0.49 0.070 0.73s0.070 0.54 0.12 0.81 0.090 0.5 0.14 0.75 0.13 0.51 0.2 0.76 0.14 0.5 0.22 0.75 0.18 0.49 0.27 0.73 0.19 0.49 0.29 0.72 0.22 0.47 0.34 0.71 0.24 0.46 0.37 0.69 0.26 0.44 0.4 0.66 0.29 0.46 0.45 0.68 0.29 0.39 0.44 0.59 0.36 0.45 0.55 0.67l0.22 0.27c0.080 0.090 0.17 0.16 0.25 0.25l0.68 0.68 0.53 0.48 0.7 0.55c0.2 0.16 0.39 0.31 0.6 0.45s0.49 0.32 0.73 0.47l0.63 0.38c0.28 0.16 0.58 0.3 0.87 0.44l0.56 0.26c0.39 0.17 0.8 0.32 1.21 0.46l0.28 0.1c1.438 0.469 3.092 0.74 4.809 0.74 0.004 0 0.008 0 0.011 0h404.49c0.25 0 0.5 0 0.76-0.080l0.77-0.11 0.79-0.16c0.24 0 0.48-0.12 0.71-0.18l0.79-0.23 0.71-0.26 0.72-0.3 0.72-0.34 0.66-0.35c0.24-0.13 0.47-0.28 0.71-0.43s0.41-0.26 0.6-0.4 0.44-0.32 0.66-0.49l0.6-0.49c0.19-0.16 0.38-0.33 0.56-0.51l0.87-0.87c0.080-0.080 0.14-0.18 0.22-0.26 0.19-0.23 0.38-0.45 0.56-0.69s0.29-0.38 0.43-0.58 0.31-0.45 0.46-0.69 0.27-0.43 0.39-0.64 0.25-0.47 0.37-0.71 0.23-0.46 0.34-0.69 0.2-0.49 0.29-0.73 0.19-0.48 0.27-0.73 0.15-0.5 0.22-0.75 0.14-0.5 0.19-0.76 0.11-0.5 0.15-0.75 0.090-0.54 0.12-0.81 0.050-0.49 0.070-0.73 0-0.58 0.050-0.87c0-0.12 0-0.23 0-0.35v-297.39c0-0.12 0-0.23 0-0.34 0-0.32 0-0.63-0.050-1s0-0.44-0.070-0.66-0.090-0.65-0.15-1-0.070-0.39-0.12-0.59c-0.080-0.35-0.17-0.7-0.28-1.050-0.050-0.17-0.090-0.33-0.14-0.49-0.13-0.37-0.27-0.74-0.43-1.11-0.050-0.13-0.1-0.26-0.16-0.39-0.16-0.37-0.36-0.74-0.55-1.1-0.070-0.12-0.12-0.24-0.19-0.36-0.19-0.33-0.41-0.65-0.63-1l-0.27-0.41c-0.2-0.27-0.42-0.53-0.64-0.79s-0.27-0.34-0.41-0.51v0c-0.26-0.29-0.54-0.55-0.81-0.81-0.11-0.1-0.2-0.21-0.3-0.3v0 0l-201.63-182.62c-2.827-2.568-6.6-4.141-10.74-4.141s-7.912 1.572-10.753 4.152l0.013-0.012-201.88 182.86c-0.29 0.28-0.59 0.56-0.86 0.86l-0.41 0.51c-0.22 0.26-0.44 0.52-0.63 0.79s-0.18 0.27-0.27 0.41c-0.23 0.32-0.44 0.65-0.64 1-0.070 0.12-0.12 0.24-0.18 0.35-0.2 0.37-0.4 0.73-0.56 1.11-0.060 0.13-0.11 0.26-0.16 0.39-0.16 0.36-0.3 0.74-0.43 1.11 0 0.16-0.090 0.32-0.14 0.48-0.11 0.35-0.2 0.71-0.28 1.060-0.050 0.2-0.080 0.39-0.12 0.58s-0.11 0.67-0.15 1 0 0.43-0.070 0.65 0 0.63 0 1c0 0.11 0 0.22 0 0.34v297.36c0 0.12 0 0.23 0 0.35-0.14 0.29-0.12 0.58-0.1 0.87zM194.68 347.33l-124.31 112.59v-225.18zM229.25 359.19l26.8-24.27 160.1 145.080h-320.28l133.38-120.8zM317.4 347.33l124.23-112.58v225.16zM256.050 37.59l177.76 161.070-140.24 127.080-26.78-24.26c-2.827-2.568-6.6-4.14-10.74-4.14s-7.912 1.572-10.753 4.152l0.013-0.012-26.8 24.26-140.31-127.070z"></path>
</svg>
