<!-- Generated by IcoMoon.io -->
<svg version="1.1" xmlns="http://www.w3.org/2000/svg" width="512" height="512" viewBox="0 0 512 512">
<title></title>
<style type="text/css">
	path{fill:#D60C18;}
</style>
<g id="icomoon-ignore">
</g>
<path d="M496.6 60.25h-481.2c-8.85 0-16 7.15-16 16v360.3c0 8.85 7.15 16 16 16h481.2c8.85 0 16-7.15 16-16v-360.3c0-8.85-7.15-16-16-16zM256.050 294.3l-48.95-48.95c0 0 0 0 0 0s0 0 0 0l-153.1-153.1h404l-201.95 202.050zM173.15 256.6l-141.75 141.35v-283.050l141.75 141.7zM195.75 279.25l48.95 48.95c3 3 7.050 4.7 11.3 4.7s8.3-1.7 11.3-4.7l48.9-48.95 141.7 141.25h-403.85l141.7-141.25zM338.9 256.65l141.7-141.75v283.1l-141.7-141.35z"></path>
</svg>
