<!-- Generated by IcoMoon.io -->
<svg version="1.1" xmlns="http://www.w3.org/2000/svg" width="512" height="512" viewBox="0 0 512 512">
<title></title>
<style type="text/css">
	path{fill:#D60C18;}
</style>
<g id="icomoon-ignore">
</g>
<path d="M473.57 197.38c0-0.22 0-0.44-0.070-0.65s-0.090-0.67-0.15-1-0.070-0.38-0.11-0.58c-0.080-0.35-0.18-0.71-0.29-1.060-0.050-0.16-0.090-0.32-0.14-0.48-0.13-0.37-0.27-0.74-0.43-1.11-0.050-0.13-0.1-0.26-0.16-0.39-0.16-0.38-0.36-0.74-0.56-1.11-0.060-0.11-0.11-0.23-0.18-0.35-0.2-0.33-0.42-0.66-0.64-1l-0.26-0.4-0.65-0.81c-0.14-0.16-0.26-0.33-0.4-0.48v-0.050c-0.28-0.31-0.57-0.59-0.87-0.87l-0.24-0.24-47.72-43.19v-127.61c0-8.836-7.163-16-16-16v0h-297.4c-8.837 0-16 7.163-16 16v0 127.63l-47.9 43.4c-0.28 0.27-0.57 0.54-0.83 0.83l-0.41 0.51c-0.22 0.26-0.44 0.52-0.64 0.79s-0.17 0.27-0.26 0.41c-0.23 0.32-0.44 0.65-0.64 1-0.070 0.12-0.12 0.23-0.18 0.35-0.176 0.298-0.363 0.662-0.531 1.037l-0.029 0.073c-0.060 0.12-0.11 0.25-0.16 0.38-0.16 0.37-0.3 0.74-0.43 1.12 0 0.16-0.090 0.32-0.14 0.48-0.11 0.35-0.21 0.71-0.29 1.060 0 0.2-0.070 0.39-0.11 0.58s-0.11 0.66-0.15 1 0 0.43-0.070 0.65 0 0.63 0 1c0 0.11 0 0.22 0 0.34v297.36c0 0.12 0 0.23 0 0.35 0 0.29 0 0.58 0 0.87s0 0.49 0.070 0.73 0.070 0.54 0.12 0.81 0.090 0.5 0.14 0.75 0.13 0.51 0.2 0.77 0.14 0.49 0.22 0.74 0.18 0.49 0.27 0.74 0.19 0.48 0.29 0.71 0.22 0.48 0.34 0.71l0.36 0.69c0.13 0.22 0.27 0.44 0.41 0.66s0.29 0.46 0.44 0.68l0.45 0.59c0.17 0.23 0.35 0.45 0.54 0.67l0.23 0.27 0.25 0.25c0.22 0.23 0.45 0.46 0.68 0.67s0.35 0.33 0.53 0.49l0.7 0.55c0.177 0.15 0.373 0.298 0.576 0.435l0.024 0.015c0.24 0.17 0.48 0.32 0.73 0.47l0.63 0.38c0.28 0.16 0.58 0.3 0.87 0.43s0.37 0.19 0.56 0.27c0.39 0.17 0.8 0.32 1.21 0.46l0.28 0.1c1.438 0.469 3.092 0.74 4.809 0.74 0.004 0 0.008 0 0.011 0h403.529c0.29 0 0.58 0 0.87 0l0.74-0.070 0.78-0.12 0.79-0.16c0.24 0 0.48-0.12 0.72-0.18l0.78-0.23 0.71-0.26c0.24-0.1 0.49-0.19 0.72-0.3l0.72-0.34 0.66-0.35c0.24-0.13 0.47-0.28 0.7-0.43s0.42-0.26 0.62-0.4l0.64-0.49 0.61-0.49c0.19-0.16 0.37-0.33 0.56-0.51l0.87-0.87c0.080-0.080 0.14-0.17 0.22-0.26s0.38-0.45 0.56-0.69l0.43-0.57c0.16-0.23 0.31-0.46 0.46-0.7s0.27-0.43 0.39-0.64 0.25-0.47 0.37-0.71 0.23-0.46 0.34-0.69 0.2-0.49 0.29-0.73 0.19-0.48 0.27-0.73 0.15-0.5 0.22-0.75 0.14-0.5 0.2-0.76 0.1-0.5 0.14-0.75 0.090-0.54 0.12-0.81 0.050-0.48 0.070-0.73 0-0.58 0.050-0.87c0-0.12 0-0.23 0-0.35v-297.39c0-0.12 0-0.23 0-0.34-0.010-0.33-0.030-0.63-0.050-0.95zM95.82 257.8c0.469 0.483 0.965 0.931 1.488 1.346l0.032 0.024 97.34 88.16-124.31 112.59v-225.18zM229.23 359.21v0l26.8-24.27 160.12 145.060h-320.28zM317.39 347.33l97.42-88.27c0.456-0.365 0.863-0.734 1.248-1.127l0.002-0.002 25.57-23.18v225.16zM433.81 198.67l-13.11 11.87v-23.75zM388.7 32v207.53l-95.13 86.21-26.78-24.26c-2.83-2.578-6.61-4.156-10.758-4.156-3.595 0-6.912 1.185-9.584 3.187l0.042-0.030c-0.435 0.33-0.821 0.658-1.185 1.005l0.006-0.005-26.8 24.26-95.21-86.23v-207.51zM91.3 210.53l-13.1-11.87 13.1-11.86zM201.31 183l-7.43 43.33c-0.145 0.81-0.228 1.743-0.228 2.694 0 8.837 7.163 16 16 16 2.72 0 5.281-0.679 7.524-1.876l-0.086 0.042 38.91-20.45 38.91 20.45c2.147 1.159 4.7 1.84 7.413 1.84 0.010 0 0.019 0 0.029 0h-0.002c8.837-0 16-7.163 16-16 0-0.954-0.084-1.888-0.243-2.796l0.014 0.096-7.43-43.33 31.48-30.68c2.998-2.911 4.858-6.98 4.858-11.482 0-8.035-5.923-14.686-13.64-15.827l-0.087-0.010-43.5-6.32-19.45-39.39c-2.671-5.329-8.091-8.924-14.35-8.924s-11.679 3.594-14.308 8.832l-0.042 0.092-19.45 39.42-43.5 6.29c-7.792 1.163-13.701 7.808-13.701 15.834 0 4.489 1.849 8.547 4.827 11.453l0.003 0.003zM235.12 149.17c5.297-0.808 9.678-4.114 11.958-8.658l0.042-0.092 8.88-17.89 8.83 17.89c2.332 4.648 6.733 7.958 11.962 8.739l0.088 0.011 19.74 2.83-14.29 14c-2.981 2.909-4.83 6.966-4.83 11.456 0 0.956 0.084 1.891 0.245 2.8l-0.014-0.096 3.37 19.66-17.65-9.28c-2.159-1.159-4.726-1.84-7.45-1.84s-5.291 0.681-7.536 1.882l0.086-0.042-17.65 9.28 3.37-19.66c0.147-0.813 0.23-1.749 0.23-2.704 0-4.489-1.849-8.547-4.827-11.453l-0.003-0.003-14.29-14z"></path>
</svg>
