<!-- Generated by IcoMoon.io -->
<svg version="1.1" xmlns="http://www.w3.org/2000/svg" width="512" height="512" viewBox="0 0 512 512">
<title></title>
<style type="text/css">
	path{fill:#D60C18;}
</style>
<g id="icomoon-ignore">
</g>
<path d="M341.029 246.857l-117.943-68.571c-10.971-6.4-19.2-0.915-19.2 10.971l0.915 137.143c0 12.8 9.143 17.372 19.2 10.971l117.028-67.657c6.4-1.829 9.143-9.143 7.315-15.543-0.914-2.743-3.657-5.486-7.315-7.315zM256 512c-140.8 0-256-115.2-256-256s115.2-256 256-256 256 115.2 256 256-115.2 256-256 256zM256 32c-123.428 0-224 100.572-224 224s100.572 224 224 224c123.428 0 224-100.572 224-224s-100.572-224-224-224z"></path>
</svg>
