<svg width="195" height="39" viewBox="0 0 195 39" fill="none" xmlns="http://www.w3.org/2000/svg">
<path d="M19.1548 13.8058L19.4412 8.01358L21.9892 4.98588L25.1894 8.20963L25.2595 14.2752L22.5772 17.2565L19.1548 13.8058ZM1.20206 29.0684L1.23088 22.1504L3.73352 19.1671L6.97912 22.3464L6.99234 29.5345L3.77051 32.555L1.20206 29.0684ZM7.79147 0.926114L17.4052 0.938744L20.6995 3.75917L17.9737 6.60528L7.46305 6.44832L4.57107 3.81187L7.79147 0.926114ZM1.26736 14.5136L1.19437 8.71757L3.97419 5.01847L6.86139 8.10411L6.88898 13.9446L3.89318 16.8327L1.26736 14.5136ZM19.8436 29.2671L19.8724 22.3491L22.375 19.3658L25.6206 22.5451L25.6458 28.6102L22.9602 31.906L19.8436 29.2671ZM7.9141 31.5659L18.3817 31.5427L21.6312 34.3626L18.9054 37.2087L7.58569 37.0881L4.9183 34.454L7.9141 31.5659Z" fill="white" fill-opacity="0.4"/>
<path d="M47.9032 14.1122L48.1896 8.32003L50.7376 5.29233L53.9378 8.51608L54.0079 14.5816L51.3256 17.563L47.9032 14.1122ZM29.9504 29.3749L29.9792 22.4568L32.4819 19.4735L35.7275 22.6529L35.7407 29.8409L32.5189 32.8614L29.9504 29.3749ZM36.5398 1.23256L46.1535 1.24519L49.4479 4.06562L46.7221 6.91173L36.2114 6.75477L33.3194 4.11832L36.5398 1.23256ZM37.6037 15.2154L46.6325 15.3116L49.7448 18.3548L47.1509 21.4718L37.2701 21.2317L34.5152 18.3721L37.6037 15.2154ZM30.0157 14.82L29.9427 9.02401L32.7226 5.32492L35.6098 8.41056L35.6373 14.251L32.6415 17.1392L30.0157 14.82ZM48.5919 29.5736L48.6208 22.6555L51.1234 19.6723L54.369 22.8516L54.3942 28.9166L51.7085 32.2124L48.5919 29.5736ZM36.6625 31.8723L47.1301 31.8491L50.3795 34.6691L47.6537 37.5152L36.3341 37.3945L33.6667 34.7605L36.6625 31.8723Z" fill="white" fill-opacity="0.4"/>
<path d="M66.4244 8.73903L74.2853 8.82282L74.2015 16.6837L66.3406 16.5999L66.4244 8.73903ZM66.2568 24.4608L74.1177 24.5446L74.0339 32.4055L66.173 32.3217L66.2568 24.4608Z" fill="white" fill-opacity="0.4"/>
<path d="M105.4 14.7251L105.686 8.93293L108.234 5.90523L111.435 9.12897L111.505 15.1945L108.822 18.1759L105.4 14.7251ZM87.4472 29.9878L87.476 23.0697L89.9786 20.0864L93.2242 23.2657L93.2374 30.4538L90.0156 33.4743L87.4472 29.9878ZM94.0366 1.84546L103.65 1.85809L106.945 4.67852L104.219 7.52462L93.7082 7.36766L90.8162 4.73122L94.0366 1.84546ZM87.5125 15.4329L87.4395 9.63691L90.2193 5.93781L93.1065 9.02345L93.1341 14.8639L90.1383 17.7521L87.5125 15.4329ZM106.089 30.1865L106.117 23.2684L108.62 20.2852L111.866 23.4645L111.891 29.5295L109.205 32.8253L106.089 30.1865ZM94.1592 32.4852L104.627 32.462L107.876 35.282L105.15 38.1281L93.8308 38.0074L91.1634 35.3734L94.1592 32.4852Z" fill="white" fill-opacity="0.4"/>
<path d="M134.148 15.0316L134.435 9.23937L136.983 6.21167L140.183 9.43542L140.253 15.501L137.571 18.4823L134.148 15.0316ZM116.196 30.2942L116.224 23.3761L118.727 20.3929L121.973 23.5722L121.986 30.7602L118.764 33.7808L116.196 30.2942ZM122.785 2.1519L132.399 2.16453L135.693 4.98497L132.967 7.83107L122.457 7.67411L119.565 5.03766L122.785 2.1519ZM116.261 15.7394L116.188 9.94336L118.968 6.24426L121.855 9.3299L121.882 15.1704L118.887 18.0585L116.261 15.7394ZM134.837 30.4929L134.866 23.5749L137.369 20.5916L140.614 23.7709L140.639 29.836L137.954 33.1318L134.837 30.4929ZM122.908 32.7917L133.375 32.7685L136.625 35.5884L133.899 38.4345L122.579 38.3139L119.912 35.6798L122.908 32.7917Z" fill="white" fill-opacity="0.4"/>
<path d="M167.794 18.8563L168.006 14.5752L169.889 12.3373L172.255 14.7201L172.306 19.2033L170.324 21.4069L167.794 18.8563ZM154.496 32.7935L154.546 25.0241L156.396 22.8191L158.795 25.169L158.776 33.138L156.395 35.3705L154.496 32.7935ZM159.395 9.33659L166.501 9.34593L168.936 11.4306L166.921 13.5342L159.152 13.4182L157.015 11.4695L159.395 9.33659ZM160.182 19.6717L166.855 19.7429L169.155 21.9921L167.238 24.296L159.935 24.1186L157.899 22.005L160.182 19.6717ZM154.573 19.3795L154.519 15.0955L156.574 12.3614L158.708 14.6421L158.728 18.9589L156.514 21.0937L154.573 19.3795ZM168.366 33.7383L168.325 25.171L170.174 22.9659L172.573 25.3159L172.654 33.2859L170.702 35.7223L168.366 33.7383Z" fill="white" fill-opacity="0.4"/>
<path d="M182.493 22.9976L182.504 15.7259L186.753 15.904L186.782 22.5121L184.797 24.9481L182.493 22.9976ZM189.043 19.0829L189.255 14.8017L191.138 12.5638L193.503 14.9466L193.555 19.4298L191.573 21.6334L189.043 19.0829ZM175.845 33.0211L175.795 25.2506L177.645 23.0456L180.044 25.3955L180.125 33.3656L177.776 35.5985L175.845 33.0211ZM180.644 9.5631L187.75 9.57243L190.185 11.6571L188.17 13.7607L180.401 13.6447L178.264 11.696L180.644 9.5631ZM175.822 19.606L175.768 15.322L177.823 12.5879L179.957 14.8686L179.977 19.1854L177.763 21.3202L175.822 19.606ZM189.48 34.1626L189.573 25.3975L191.423 23.1924L193.822 25.5424L193.768 33.7102L191.783 36.1462L189.48 34.1626Z" fill="white" fill-opacity="0.4"/>
</svg>
