<?xml version="1.0" encoding="utf-8"?>
<!-- Generator: Adobe Illustrator 25.4.1, SVG Export Plug-In . SVG Version: 6.00 Build 0)  -->
<svg version="1.1" id="圖層_1" xmlns="http://www.w3.org/2000/svg" xmlns:xlink="http://www.w3.org/1999/xlink" x="0px" y="0px"
	 viewBox="0 0 123.6 71.8" style="enable-background:new 0 0 123.6 71.8;" xml:space="preserve">
<style type="text/css">
	.st0{fill:#FFFFFF;fill-opacity:0.4;}
</style>
<g>
	<path class="st0" d="M30.8,22.3l2.7-7.9l4.7-3.2l3.1,5.7l-2.3,8.4l-4.9,3L30.8,22.3z M0,36.1l2.8-9.5l4.6-3.1l3.2,5.7l-2.9,9.9
		L2.1,42L0,36.1z M20.3,0l13.2,3.9L37,9.1l-4.9,2.8L17.7,7.5l-2.9-4.8L20.3,0z M5.9,16.1l2.2-8l5.3-4l2.7,5.4l-2.3,8.1l-5.3,2.8
		L5.9,16.1z M25.6,43.9l2.8-9.5l4.6-3.1l3.2,5.7l-2.4,8.4l-5,3.5L25.6,43.9z M8.3,42.3l14.4,4.1l3.4,5.2l-4.9,2.8L5.6,49.8L3,45.1
		L8.3,42.3z"/>
	<path class="st0" d="M62.3,34.1l12.3,3.5l3.4,5.1l-4.9,2.8l-13.5-4.1l-2.6-4.7L62.3,34.1z M45.9,54.1l4-13.3l4.6-3.1l3.2,5.7
		l-4.1,13.7L48,59.9L45.9,54.1z M67.4,14.2l13.2,3.9l3.4,5.2l-4.9,2.8l-14.4-4.4l-2.9-4.8L67.4,14.2z M53,30.3l2.2-8l5.3-4l2.7,5.4
		L61,31.8l-5.3,2.8L53,30.3z"/>
	<path class="st0" d="M101.8,46l12.3,3.5l3.4,5.1l-4.9,2.8l-13.5-4.1l-2.6-4.7L101.8,46z M85.4,66l4-13.3l4.6-3.1l3.2,5.7L93.1,69
		l-5.6,2.8L85.4,66z M106.9,26.1l13.2,3.9l3.4,5.2l-4.9,2.8l-14.4-4.4l-2.9-4.8L106.9,26.1z M92.5,42.2l2.2-8l5.3-4l2.7,5.4
		l-2.3,8.1l-5.3,2.8L92.5,42.2z"/>
</g>
</svg>
