<?xml version="1.0" encoding="utf-8"?>
<!-- Generator: Adobe Illustrator 24.0.3, SVG Export Plug-In . SVG Version: 6.00 Build 0)  -->
<svg version="1.1" xmlns="http://www.w3.org/2000/svg" xmlns:xlink="http://www.w3.org/1999/xlink" x="0px" y="0px"
	 viewBox="0 0 517.4 492.7" style="enable-background:new 0 0 517.4 492.7;" xml:space="preserve">
<style type="text/css">
	.st0{fill:none;stroke:#CCCCCC;stroke-width:1.9;stroke-linecap:round;stroke-linejoin:round;}
	.st1{fill:#9D0505;}
	.st2{fill:none;stroke:#CCCCCC;stroke-linecap:round;stroke-linejoin:round;}
	.st3{fill:#39393A;}
</style>
<g id="圖層_2">
	<g id="line_1_">
		<path class="st0" d="M95.7,170c-2.1-4.8-7.4-13.8-16-12.3c-9.7,1.7-9.3,13.3-8.4,19.6c1.1,7.1,3.8,14.3,5.5,15.3
			c2.4,1.4,21-3,22.8-5.3C101.1,185.6,97.9,175.1,95.7,170z"/>
		<path class="st1" d="M229.3,195.5c-7.5,1-15.5,6.9-22.5,9.6c-7,2.6-26.9,11.3-27.3,11.3l0,0c-6.5,1.9-11.2,4.4-13.5,6
			c-4.4,2.9-1.6,17.7,10.8,17.9l0,0.4c0,0,4.9,4.9,16.7,5.5c12.6,0.6,37.3-1.5,48.8-5.1s13.6-6.2,15.4-6.5
			c1.8-0.2,18.3-0.6,28.6,2.4l0-44.1C271.3,194.9,238.1,194.3,229.3,195.5z"/>
		<path class="st0" d="M277.4,236.3c0.6,4.3,3.6,18.6,21.6,37.3s47,21.8,47,21.8"/>
		<path class="st2" d="M149.8,296.4c0,0,77.7-20.9,85.2-23.3s10.6-9.1,8.5-15.1c-2.1-5.9-6.2-15.7-6.2-15.7"/>
		<path class="st2" d="M219.2,199c0,0-66.2-170.3-69.7-178.8s-7.8-13.8-17-15.4s-81.8,3.6-91.1,5.7c-7.5,1.7-20.3,9-13.5,27.2
			c1.1,3.1,47,122.2,47,122.2"/>
		<path class="st2" d="M81.3,157.6c0,0-39.7-103.2-46.8-123.5c-5-14.4,4.6-19.9,14.9-21.4c0,0,76.2-7.5,86.1-7.2"/>
		<polyline class="st2" points="89.1,160.6 44.9,43.6 150.1,32.9 215.6,200.8 		"/>
		<line class="st0" x1="135.2" y1="263.1" x2="204.7" y2="246.3"/>
		<path class="st1" d="M210,308.9L210,308.9c-0.7-1.2-1.7-2.5-2.9-3.6c-10.9-10.4-33.9-14.6-33.9-14.6l-24.7,5.9
			c-2.9-9.8-5.8-18.6-8-23.6c-5.3-12.1-14.5-22.3-18.1-32.2c-3.6-9.9-2.3-20.6-8.4-39.8c-4-11.9-10.3-22.9-18.7-32.2
			c0,0-5.2-12.7-15.4-11.1c-10.2,1.7-8.8,17.8-8.8,17.8s-2.1,8.3-1.4,21.9l-7.4,3.4l0,0c-1.1-10.5-4.3-19.5-2.9-20.9
			c1.6-1.6,12.8-26.3,13.3-26.3l-13.7-32.1c0,0-24.7,38.8-27.9,42.7c-3.2,4-8.7,10-9.5,13.3c-0.7,3.3,1,23.8,0,44.3
			c-1,20.5-2.5,28.9-4,41.5c-0.5,4.5-0.4,8.2,0.2,11.5l-0.5,0.8c0,0-10.3,21.6-7.5,33.9s12.6,21.9,19.7,44.5
			c7.1,22.6,7.7,33.5,15.4,60.5c7,24.4,12.2,21,14,41.9c0.5,5.6,0-0.1,1.1,13.6l92-6.4l-1.1-8.4c-3.6-26.9-1.5-24.3,6.1-52.3
			c7.4-27.4,6.3-44.5,3.3-60.1c8-0.2,23,1.6,26.8-7.7l0,0c7-4,2.1-11.5,2-11.7l-1.5-0.5c4.5,1.2,7.9,2.1,9,2.4
			c2.2,0.4,4.3,0.4,6.2-0.1l0,0.1c0,0,8.3,1.6,10.8-5.4C216.2,312,210,308.9,210,308.9z"/>
		<path class="st0" d="M250.5,285.5c-2.4-0.9-20-4.2-21.3,6.8c-1.2,10,19.6,8.8,22.8,7C254.7,297.9,256.7,287.7,250.5,285.5z"/>
		<path class="st1" d="M464.8,314.9c-37.3-32.9-42-32.4-61.4-46.4c-19.3-14.1-26-30.1-40.9-43.4c-14.9-13.3-42.3-33.8-48.3-36.1v0
			c-27.5-14-43.3-31.9-52.1-35.5c-12-4.8-27-11.2-40.6-20.5c-13.6-9.3-37.1-23.7-37.1-23.7l59.2,148.8c0,0,1.5,6.1-0.8,9.6
			c-2.4,3.5-7.6,5.4-7.6,5.4l-42.4,11.7c0,0-5.7,5.8,1.7,12.4l7,3.7c-0.1,0.1,8.7,0.8,16.8,2.6c0,0,0,0,0,0c0,0,12.8,10,27.5,12.7
			c14.2,10.3,29.5,19.2,45.5,26.5c27.1,12.5,46.9,15.5,60.1,20.7c13.3,5.1,65.6,55.6,83,73.3l78-84.6
			C512.3,352.1,502.1,347.8,464.8,314.9z"/>
		<path class="st0" d="M215.6,168.1c-4.6-1.9-8.6-4.9-11.8-8.7"/>
	</g>
</g>
<g id="圖層_1">
	<g id="bg">
		<path class="st3" d="M148.6,297.2l88.9-25.1c0,0,7.4-2.7,6.6-10.3c-0.7-7.7-6.9-19.5-6.9-19.5s-3.4,2.1-18,3.1s-17.9,0.9-17.9,0.9
			l-66.1,16.9C135.2,263.1,145.4,279.3,148.6,297.2z"/>
		<path class="st3" d="M219.2,199L148.6,17.9c0,0-2.6-10.5-13.1-12.4s-91.8,4.6-91.8,4.6s-11,1.6-14.8,8.4s-3.1,12.5-2,15.8
			s47.8,125,47.8,125s1.3-1.4,5.5-1.7s9.2,3,9.2,3L44.9,43.3l104.9-10.3l65.8,167.9L219.2,199z"/>
	</g>
	<g id="line">
		<path class="st0" d="M95.7,170c-2.1-4.8-7.4-13.8-16-12.3c-9.7,1.7-9.3,13.3-8.4,19.6c1.1,7.1,3.8,14.3,5.5,15.3
			c2.4,1.4,21-3,22.8-5.3C101.1,185.6,97.9,175.1,95.7,170z"/>
		<path class="st0" d="M95.1,168.8c8.4,9.3,14.8,20.3,18.7,32.2c6.1,19.2,4.8,29.9,8.4,39.8s12.8,20.1,18.1,32.2
			s14.8,46.5,18.5,63.8s6.3,35.1-2.1,66c-7.6,28-9.7,25.4-6.1,52.3l1.1,8.4"/>
		<path class="st0" d="M70.9,175.5c0,0-3.1,9-0.8,28.8s11.9,36.8,13.8,46.1c1.8,9.2,1.8,27.1-2.1,41.2"/>
		<path class="st0" d="M200.3,213.8c1.9,0.1,9.2,8.9,5.5,18.2c-1.7,4.2-16.4,8.5-28.9,8.3s-15.3-15-10.9-17.9
			S183.1,213.2,200.3,213.8z"/>
		<path class="st0" d="M314.3,189c6,2.3,33.4,22.8,48.3,36.1s21.6,29.3,40.9,43.4c19.3,14.1,24,13.5,61.4,46.4s47.5,37.1,47.5,37.1"
			/>
		<path class="st0" d="M179.5,216.4c0.4,0,20.3-8.7,27.3-11.3s14.9-8.5,22.5-9.6c8.8-1.2,42-0.6,57-2.6"/>
		<path class="st0" d="M176.7,240.7c0,0,4.9,4.9,16.7,5.5c12.6,0.6,37.3-1.5,48.8-5.1s13.6-6.2,15.4-6.4s18.3-0.6,28.6,2.4"/>
		<path class="st0" d="M277.4,236.3c0.6,4.3,3.6,18.6,21.6,37.3s47,21.8,47,21.8"/>
		<path class="st2" d="M149.8,296.4c0,0,77.7-20.9,85.2-23.3s10.6-9.1,8.5-15.1c-2.1-5.9-6.2-15.7-6.2-15.7"/>
		<path class="st2" d="M219.2,199c0,0-66.2-170.3-69.7-178.8s-7.8-13.8-17-15.4s-81.8,3.6-91.1,5.7c-7.5,1.7-20.3,9-13.5,27.2
			c1.1,3.1,47,122.2,47,122.2"/>
		<path class="st2" d="M81.3,157.6c0,0-39.7-103.2-46.8-123.5c-5-14.4,4.6-19.9,14.9-21.4c0,0,76.2-7.5,86.1-7.2"/>
		<polyline class="st2" points="89.1,160.6 44.9,43.6 150.1,32.9 215.6,200.8 		"/>
		<line class="st0" x1="135.2" y1="263.1" x2="204.7" y2="246.3"/>
		<path class="st0" d="M72.5,153.5c-0.6,0-11.7,24.7-13.3,26.3s2.9,13.4,3.2,25.8c0.2,7.3-0.2,14.6-1.3,21.8"/>
		<path class="st0" d="M53,223.4c0,0,8.7-0.3,17.1,17.4c7.1,15,7,23.3,7,23.3s3.1,1.3,7.7,8"/>
		<path class="st0" d="M58.8,121.4c0,0-24.7,38.8-27.9,42.7s-8.7,10-9.4,13.3s1,23.8,0,44.3s-2.5,28.9-4,41.5
			c-1.4,12.5,2.1,19.4,6.4,27.4S38,309.4,38,309.4"/>
		<path class="st0" d="M17.2,275.5c0,0-10.4,21.6-7.5,33.9s12.6,21.9,19.7,44.5s7.7,33.5,15.4,60.5c7,24.4,12.2,21,14,41.9
			c0.5,5.6,0-0.1,1.1,13.6"/>
		<path class="st0" d="M62,200.8c2.1-1.5,4.4-2.7,6.8-3.6"/>
		<path class="st0" d="M75.3,254.4c0.7-1.2,0.8-10.4,3.7-18.2"/>
		<path class="st0" d="M154.5,314.1c0.5,0,33.6,1,33.4,15.9s-18.5,12.5-27.8,12.7"/>
		<path class="st0" d="M173.1,290.6c0,0,23,4.2,33.9,14.6c10.1,9.6,1.7,22.2-10.6,19.8c-4.4-0.9-8.7-2.1-12.9-3.5"/>
		<path class="st0" d="M189,323.2c0.1,0.2,5,7.8-2,11.7"/>
		<path class="st0" d="M210,308.9c0,0,6.1,3.1,3.4,10.8c-2.5,7-10.8,5.4-10.8,5.4"/>
		<path class="st0" d="M192.6,284.8c0,0-5.7,5.8,1.7,12.4"/>
		<path class="st0" d="M201.3,300.9c-0.1,0.1,8.7,0.8,16.8,2.6c8.5,2.2,17.3,2.8,26,1.8c8.9-0.9,15.3-7.7,14-15.1s-7.8-9.2-13-10.3
			s-16.7-0.1-24.2-2.8"/>
		<path class="st0" d="M250.5,285.5c-2.4-0.9-20-4.2-21.3,6.8c-1.2,10,19.6,8.8,22.8,7C254.7,297.9,256.7,287.7,250.5,285.5z"/>
		<path class="st0" d="M184.3,109.3c0,0,23.5,14.4,37.1,23.7s28.7,15.7,40.6,20.5c8.8,3.6,24.6,21.5,52.1,35.5"/>
		<path class="st0" d="M218.2,303.5c0,0,12.8,10,27.5,12.7c14.2,10.3,29.5,19.2,45.5,26.5c27.1,12.5,46.9,15.5,60.1,20.7
			s65.6,55.6,83,73.3"/>
		<path class="st0" d="M215.6,168.1c-4.6-1.9-8.6-4.9-11.8-8.7"/>
	</g>
</g>
</svg>
