<?xml version="1.0" encoding="utf-8"?>
<!-- Generator: Adobe Illustrator 23.0.4, SVG Export Plug-In . SVG Version: 6.00 Build 0)  -->
<svg version="1.1" id="圖層_1" xmlns="http://www.w3.org/2000/svg" xmlns:xlink="http://www.w3.org/1999/xlink" x="0px" y="0px"
	 viewBox="0 0 1024 1024" style="enable-background:new 0 0 1024 1024;" xml:space="preserve">
<style type="text/css">
	.st0{fill:url(#SVGID_1_);}
</style>
<title></title>
<g id="icomoon-ignore">
</g>
<linearGradient id="SVGID_1_" gradientUnits="userSpaceOnUse" x1="512" y1="16.8636" x2="512" y2="1000.864">
	<stop  offset="0" style="stop-color:#4F5BD5"/>
	<stop  offset="0.25" style="stop-color:#962FBF"/>
	<stop  offset="0.5" style="stop-color:#D62976"/>
	<stop  offset="0.75" style="stop-color:#FA7E1E"/>
	<stop  offset="1" style="stop-color:#FEDA75"/>
</linearGradient>
<path class="st0" d="M718.9,0H305.1C136.7,0.2,0.2,136.7,0,305v413.9c0.2,168.4,136.7,304.9,305,305.1h413.9
	c168.4-0.2,304.9-136.7,305.1-305V305.1C1023.8,136.7,887.3,0.2,718.9,0L718.9,0L718.9,0z M921,718.9c0,111.6-90.5,202-202,202l0,0
	H305.1c-111.6,0-202-90.5-202-202l0,0V305.1c0-111.6,90.5-202,202-202l0,0h413.9c111.6,0,202,90.5,202,202l0,0V718.9z M512,247.2
	c-146.3,0-264.8,118.6-264.8,264.8S365.7,776.8,512,776.8S776.8,658.3,776.8,512l0,0C776.7,365.8,658.2,247.3,512,247.2L512,247.2
	L512,247.2z M512,673.8c-89.4,0-161.8-72.5-161.8-161.8S422.6,350.2,512,350.2S673.8,422.6,673.8,512l0,0
	C673.8,601.4,601.4,673.8,512,673.8L512,673.8z M840.8,249.2c0,35.1-28.4,63.5-63.5,63.5s-63.5-28.4-63.5-63.5s28.4-63.5,63.5-63.5
	S840.8,214.1,840.8,249.2L840.8,249.2z"/>
</svg>
