<?xml version="1.0" encoding="utf-8"?>
<!-- Generator: Adobe Illustrator 23.0.4, SVG Export Plug-In . SVG Version: 6.00 Build 0)  -->
<svg version="1.1" id="圖層_1" xmlns="http://www.w3.org/2000/svg" xmlns:xlink="http://www.w3.org/1999/xlink" x="0px" y="0px"
	 viewBox="0 0 1067 1024" style="enable-background:new 0 0 1067 1024;" xml:space="preserve">
<style type="text/css">
	.st0{fill:#00C200;}
</style>
<title></title>
<g id="icomoon-ignore">
</g>
<path class="st0" d="M1066.7,409.6C1053.9,181.3,819.2,0,533.3,0C238.9,0,0,192,0,430.9c0,217.6,202.7,398.9,462.9,426.7
	c17.1,2.1,27.7,17.1,25.6,32l0,0L477.9,992c-2.1,14.9,8.5,29.9,25.6,32c6.4,0,10.7,0,17.1-2.1c219.7-108.8,352-219.7,430.9-315.7
	c14.9-17.1,61.9-83.2,70.4-102.4c21.3-36.3,34.1-76.8,40.5-119.5c2.1-10.7,4.3-21.3,4.3-32C1066.7,439.5,1066.7,424.5,1066.7,409.6z
	 M324.3,573.9H213.3c-14.9,0-27.7-12.8-27.7-27.7V337.1c0-14.9,12.8-27.7,27.7-27.7s27.7,12.8,27.7,27.7v181.3h83.2
	c14.9,0,27.7,12.8,27.7,27.7S339.2,573.9,324.3,573.9L324.3,573.9z M430.9,330.7v221.9c0,12.8-10.7,21.3-21.3,21.3h-12.8
	c-12.8,0-21.3-10.7-21.3-21.3V330.7c0-12.8,10.7-21.3,21.3-21.3h12.8C420.3,309.3,430.9,317.9,430.9,330.7L430.9,330.7z M684.8,544
	c0,14.9-12.8,27.7-27.7,29.9c-6.4,0-12.8-2.1-19.2-8.5c-2.1-2.1-113.1-147.2-113.1-147.2V544c0,14.9-12.8,27.7-27.7,27.7
	s-27.7-12.8-27.7-27.7V337.1c0-14.9,10.7-27.7,25.6-29.9c8.5,0,17.1,2.1,21.3,8.5c2.1,2.1,113.1,145.1,113.1,145.1v-128
	c0-14.9,12.8-27.7,27.7-27.7s27.7,12.8,27.7,27.7L684.8,544L684.8,544z M859.7,413.9c14.9,0,27.7,12.8,27.7,27.7
	s-12.8,27.7-27.7,27.7h-83.2v49.1h83.2c14.9,0,27.7,12.8,27.7,27.7s-12.8,27.7-27.7,27.7H748.8c-14.9,0-27.7-12.8-27.7-27.7V337.1
	c0-14.9,12.8-27.7,27.7-27.7h110.9c14.9,0,27.7,12.8,27.7,27.7s-12.8,27.7-27.7,27.7h-83.2v49.1L859.7,413.9L859.7,413.9z"/>
</svg>
