<?xml version="1.0" encoding="utf-8"?>
<!-- Generator: Adobe Illustrator 23.0.4, SVG Export Plug-In . SVG Version: 6.00 Build 0)  -->
<svg version="1.1" id="圖層_1" xmlns="http://www.w3.org/2000/svg" xmlns:xlink="http://www.w3.org/1999/xlink" x="0px" y="0px"
	 viewBox="0 0 1024 1024" style="enable-background:new 0 0 1024 1024;" xml:space="preserve">
<style type="text/css">
	.st0{fill:#FF5700;}
</style>
<title></title>
<g id="icomoon-ignore">
</g>
<path class="st0" d="M232.1,791.5c24.7,24.4,39.9,58.3,39.9,95.7s-15.3,71.3-39.9,95.7l0,0c-24.6,24.6-58.6,39.7-96.1,39.7
	s-71.5-15.2-96.1-39.7l0,0C15.3,958.5,0,924.7,0,887.2s15.2-71.3,39.9-95.7l0,0c24.6-24.6,58.6-39.8,96.1-39.8
	S207.5,766.9,232.1,791.5L232.1,791.5L232.1,791.5z M232.1,791.5L232.1,791.5z M39.9,983L39.9,983L39.9,983z M0,348.2v195.5
	c0.2,0,0.4,0,0.5,0c132.2,0,251.9,53.8,338.3,140.7l0,0C425.7,771,479.4,890.7,479.4,1023c0,0.2,0,0.5,0,0.7v0v0.3h196.3
	c0-186.5-75.8-355.4-198.2-477.4l0,0C355.5,424,186.7,348.2,0.2,348.2C0.2,348.2,0.1,348.2,0,348.2L0,348.2L0,348.2z M0.5,0v195.5
	c456.9,1.1,827,371.5,827.5,828.5v0.1h196c0-0.1,0-0.2,0-0.3c0-282.6-114.8-538.3-300.2-723.2l0,0C539,114.8,283.3,0,0.7,0
	C0.6,0,0.5,0,0.5,0L0.5,0L0.5,0z"/>
</svg>
