<!-- Generated by IcoMoon.io -->
<svg version="1.1" xmlns="http://www.w3.org/2000/svg" width="512" height="512" viewBox="0 0 512 512">
<title></title>
<style type="text/css">
	path{fill:#fff;}
</style>
<g id="icomoon-ignore">
</g>
<path d="M491.9 156.35c-12.9-30.5-31.4-57.85-54.9-81.35s-50.85-42-81.35-54.9c-31.55-13.35-65.1-20.1-99.65-20.1s-68.1 6.75-99.65 20.1c-30.5 12.9-57.85 31.4-81.35 54.9s-42 50.85-54.9 81.35c-13.35 31.55-20.1 65.1-20.1 99.65s6.75 68.1 20.1 99.65c12.9 30.5 31.4 57.85 54.9 81.35s50.9 41.95 81.35 54.85c31.55 13.35 65.1 20.1 99.65 20.1s68.1-6.75 99.65-20.1c30.5-12.85 57.85-31.35 81.35-54.85s41.95-50.9 54.85-81.35c13.35-31.55 20.1-65.1 20.1-99.65s-6.7-68.1-20.050-99.65zM462.4 343.2c-11.3 26.65-27.45 50.65-48 71.2-20.6 20.6-44.55 36.75-71.2 48-27.6 11.7-56.95 17.6-87.2 17.6s-59.6-5.9-87.2-17.6c-26.65-11.3-50.65-27.45-71.2-48-20.6-20.6-36.75-44.55-48-71.2-11.7-27.6-17.6-56.95-17.6-87.2s5.9-59.6 17.6-87.2c11.3-26.65 27.45-50.65 48-71.2 20.6-20.6 44.55-36.75 71.2-48 27.6-11.7 56.95-17.6 87.2-17.6s59.6 5.9 87.2 17.6c26.65 11.3 50.65 27.45 71.2 48 20.6 20.6 36.75 44.55 48 71.2 11.7 27.6 17.6 56.95 17.6 87.2s-5.9 59.6-17.6 87.2zM271.6 240.45h-31.2c0 0 0 0-0.050 0-8.35 0-16.15-3.25-22.050-9.15s-9.15-13.75-9.15-22.050c0-8.35 3.25-16.2 9.15-22.1s13.75-9.15 22.050-9.15h62.4c0 0 0 0 0 0 8.55 0 15.55-6.95 15.55-15.55 0-4.15-1.6-8.050-4.55-11s-6.85-4.55-11.050-4.55h-31.25v-31.25c0-8.6-7-15.55-15.55-15.55-8.6 0-15.55 7-15.55 15.55v31.25h-0.050c-34.4 0-62.35 27.95-62.35 62.35s28.050 62.3 62.45 62.3h31.2c8.35 0 16.2 3.25 22.050 9.15 5.9 5.9 9.15 13.75 9.15 22.1 0 17.2-14 31.2-31.2 31.2h-62.4c-8.6 0-15.55 7-15.55 15.6 0 8.55 7 15.55 15.55 15.55h31.25v31.25c0 8.6 7 15.55 15.55 15.55 8.6 0 15.55-7 15.55-15.55v-31.25h0.050c34.4 0 62.35-27.95 62.35-62.35s-27.95-62.35-62.35-62.35z"></path>
</svg>
