<!-- Generated by IcoMoon.io -->
<svg version="1.1" xmlns="http://www.w3.org/2000/svg" width="512" height="512" viewBox="0 0 512 512">
<title></title>
<style type="text/css">
	path{fill:#fff;}
</style>
<g id="icomoon-ignore">
</g>
<path d="M245.863 286.856c0.307 0.307 0.683 0.649 1.058 0.955 0.034 0.034 0.102 0.068 0.137 0.103l0.478 0.375c0.137 0.103 0.341 0.239 0.581 0.409 0.137 0.103 0.273 0.171 0.41 0.239l0.614 0.375c0.034 0.034 0.069 0.034 0.102 0.034 0.273 0.137 0.512 0.273 0.751 0.375l0.069 0.034c0.137 0.068 0.341 0.171 0.581 0.273l1.161 0.409c0.239 0.068 0.41 0.137 0.614 0.171l0.205 0.068c0.205 0.068 0.41 0.103 0.614 0.137s0.41 0.068 0.614 0.103l0.239 0.034c0.205 0.034 0.375 0.068 0.512 0.068 0.512 0.034 0.956 0.068 1.399 0.068 0.375 0 0.853 0 1.399-0.068 0.273-0.034 0.512-0.068 0.615-0.103v0c0.205-0.034 0.512-0.068 0.853-0.137 0.103-0.034 0.205-0.034 0.341-0.068 0.068-0.034 0.137-0.034 0.239-0.068 0.034 0 0.103-0.034 0.137-0.034l0.58-0.171c0.205-0.068 0.375-0.137 0.546-0.171l0.649-0.239c0.103-0.034 0.205-0.068 0.307-0.137l0.615-0.273c0.171-0.068 0.375-0.171 0.58-0.307 0.205-0.103 0.409-0.239 0.615-0.375l0.068-0.034c0.137-0.068 0.307-0.171 0.512-0.307 0.137-0.103 0.273-0.205 0.443-0.307l0.205-0.137c0.205-0.137 0.307-0.239 0.478-0.375 0.375-0.307 0.717-0.615 1.024-0.955l86.733-86.733c2.697-2.696 4.199-6.315 4.199-10.137 0-7.919-6.417-14.336-14.336-14.336-3.823 0-7.441 1.502-10.137 4.198l-62.327 62.293v-226.475c0-7.919-6.417-14.336-14.336-14.336s-14.336 6.417-14.336 14.336v226.475l-62.259-62.259c-2.696-2.696-6.315-4.198-10.137-4.198-7.919 0-14.336 6.417-14.336 14.336 0 3.823 1.502 7.441 4.198 10.137l86.733 86.733zM414.447 225.109c-7.919 0-14.336 6.417-14.336 14.336v86.119h-288.222v-86.118c0-7.919-6.417-14.336-14.336-14.336s-14.336 6.417-14.336 14.336v100.454c0 7.919 6.417 14.336 14.336 14.336h316.86c7.919 0 14.336-6.417 14.336-14.336v-100.454c0.034-7.919-6.417-14.336-14.302-14.336zM180.088 392.841v0c-4.335-3.003-9.694-5.051-15.941-6.075-4.335-0.785-10.582-1.195-18.602-1.195h-44.612c-1.877 0-3.413 1.536-3.413 3.413v118.272c0 1.877 1.536 3.413 3.413 3.413h15.667c1.877 0 3.413-1.536 3.413-3.413v-44.68h26.931c17.647 0 30.174-3.891 37.206-11.537 6.963-7.577 10.513-16.964 10.513-27.853 0-6.349-1.331-12.288-3.925-17.647-2.696-5.359-6.246-9.659-10.649-12.697zM147.149 441.822h-27.17v-35.464h26.829c8.431 0 12.118 0.512 13.688 0.921 3.345 0.921 5.974 2.765 8.022 5.666 2.082 2.901 3.106 6.519 3.106 10.718 0 5.871-1.707 10.24-5.222 13.346-3.55 3.209-10.035 4.813-19.251 4.813zM292.488 396.561c-5.188-4.438-11.503-7.51-18.774-9.182-5.086-1.195-12.425-1.775-21.846-1.775h-40.721c-1.877 0-3.413 1.536-3.413 3.413v118.272c0 1.877 1.536 3.413 3.413 3.413h42.666c7.407 0 14.063-0.717 19.798-2.116 5.871-1.433 10.991-3.584 15.224-6.417s8.123-6.724 11.639-11.571c3.481-4.847 6.383-10.957 8.567-18.227 2.185-7.236 3.277-15.599 3.277-24.883 0-10.889-1.639-20.753-4.847-29.32-3.277-8.704-8.329-15.974-14.985-21.606zM289.382 447.249c0 8.534-0.99 15.838-2.935 21.709-1.877 5.735-4.539 10.308-7.851 13.619-2.253 2.253-5.359 4.027-9.25 5.291-4.062 1.331-9.899 2.014-17.305 2.014h-21.846v-83.524h21.435c8.841 0 15.257 0.751 19.012 2.185 5.051 1.979 9.489 6.007 13.142 11.947 3.721 6.11 5.598 15.087 5.598 26.76zM411.067 385.604h-79.803c-1.877 0-3.413 1.536-3.413 3.413v118.272c0 1.877 1.536 3.413 3.413 3.413h15.667c1.877 0 3.413-1.536 3.413-3.413v-50.313h52.087c1.877 0 3.413-1.536 3.413-3.413v-13.961c0-1.877-1.536-3.413-3.413-3.413h-52.087v-29.798h60.723c1.877 0 3.413-1.536 3.413-3.413v-13.961c0-1.911-1.536-3.413-3.413-3.413z"></path>
</svg>
