<!-- Generated by IcoMoon.io -->
<svg version="1.1" xmlns="http://www.w3.org/2000/svg" width="640" height="512" viewBox="0 0 640 512">
<title></title>
<style type="text/css">
	path{fill:#fff;}
</style>
<g id="icomoon-ignore">
</g>
<path d="M637 485.25l-614-483.5c-1.355-1.091-3.098-1.75-4.995-1.75-2.52 0-4.767 1.165-6.233 2.985l-0.012 0.015-10 12.51c-1.093 1.356-1.754 3.1-1.754 4.999 0 2.517 1.162 4.762 2.979 6.229l0.015 0.012 614 483.5c1.356 1.094 3.101 1.755 5 1.755 2.522 0 4.771-1.167 6.237-2.99l0.012-0.015 10-12.51c1.091-1.356 1.75-3.098 1.75-4.995 0-2.519-1.165-4.767-2.985-6.233l-0.015-0.012zM320 96c70.661 0.079 127.921 57.339 128 127.993v0.007c0 21.62-5.9 41.69-15.4 59.57l25.45 20c13.6-23.48 21.95-50.43 21.95-79.57 0-36.83-12.91-70.31-33.78-97.33 56.184 28.782 100.846 73.284 129.056 127.689l0.774 1.641c-17.73 33.989-40.405 62.853-67.464 86.893l-0.307 0.267 25.32 19.94c28.47-26.28 52.87-57.26 70.93-92.51 2.193-4.248 3.48-9.271 3.48-14.595s-1.286-10.347-3.564-14.776l0.085 0.181c-54.23-105.81-161.59-177.4-284.53-177.4-0.049 0-0.107 0-0.165 0-47.136 0-91.824 10.478-131.863 29.233l1.908-0.803 45.77 36c22.59-19.91 51.91-32.43 84.35-32.43zM380.86 242.83c1.995-5.877 3.147-12.647 3.147-19.686 0-34.877-28.273-63.15-63.15-63.15-0.301 0-0.602 0.002-0.902 0.006l0.046-0c-1 0-1.89 0.24-2.85 0.29 1.805 4.689 2.851 10.113 2.851 15.781 0 5.905-1.135 11.544-3.197 16.714l0.107-0.304zM163.24 193.67c-1.982 9.083-3.157 19.546-3.239 30.268l-0 0.061c-0 0.181-0.001 0.396-0.001 0.611 0 88.028 71.362 159.39 159.39 159.39 24.267 0 47.266-5.423 67.853-15.123l-0.973 0.412-29.58-23.29c-11.7 3.53-23.85 6-36.68 6-70.662-0.079-127.924-57.339-128.010-127.992v-0.008c0-2.44 0.59-4.72 0.72-7.12zM320 416c-107.36 0-205.47-61.31-256-160 17.43-34 41.090-62.72 68.31-86.72l-25.86-20.37c-28.48 26.28-52.87 57.25-70.93 92.5-2.194 4.248-3.48 9.271-3.48 14.595s1.286 10.348 3.565 14.776l-0.085-0.182c54.19 105.81 161.55 177.4 284.48 177.4 0.048 0 0.104 0 0.161 0 47.137 0 91.827-10.478 131.868-29.233l-1.908 0.803-29.25-23c-31.81 12.27-65.72 19.43-100.87 19.43z"></path>
</svg>
