<!-- Generated by IcoMoon.io -->
<svg version="1.1" xmlns="http://www.w3.org/2000/svg" width="697" height="512" viewBox="0 0 697 512">
<title></title>
<style type="text/css">
	path{fill:#fff;}
</style>
<g id="icomoon-ignore">
</g>
<path d="M-0.002 479.666l173.384-447.332h62.418l183.787 447.332h-65.886l-52.015-135.239h-187.255l-48.547 135.24h-65.886zM131.77 295.879h149.11l-45.080-121.369c-13.87-38.144-24.274-69.354-31.209-93.627-6.935 27.742-13.87 58.951-24.274 86.692l-48.548 128.305zM419.588 479.666l114.434-298.221h41.612l121.369 298.221h-45.080l-34.677-90.159h-124.837l-31.209 90.159h-41.612zM506.28 358.297h100.563l-31.21-83.225c-10.403-24.274-17.338-45.080-20.806-62.418-3.467 20.806-10.403 38.144-17.338 55.483l-31.209 90.159z"></path>
</svg>
