<!-- Generated by IcoMoon.io -->
<svg version="1.1" xmlns="http://www.w3.org/2000/svg" width="512" height="512" viewBox="0 0 512 512">
<title></title>
<style type="text/css">
	path{fill:#fff;}
</style>
<g id="icomoon-ignore">
</g>
<path d="M496 145.261h-116c10.267-8.203 18.87-17.968 25.575-29.013l0.274-0.487c0.23-0.37 0.43-0.7 0.61-1 5.9-9.35 12.76-31 7.48-52.38-4-16.14-14.26-29.38-29.69-38.27-37.51-21.61-76.7-3.67-107.51 49.24-14.6 25.070-19 54.070-20.22 71.88h-0.95c-1.25-17.81-5.63-46.81-20.23-71.88-30.8-52.91-70-70.85-107.5-49.24-15.45 8.94-25.72 22.16-29.71 38.31-5.29 21.36 1.58 43 7.48 52.37 0.18 0.27 0.38 0.6 0.6 1 6.988 11.529 15.594 21.293 25.641 29.331l0.219 0.169h-116.070c-8.836 0-16 7.163-16 16v0 96c0 8.837 7.163 16 16 16v0h15.79v207.55c0 8.837 7.163 16 16 16v0h416.42c8.837 0 16-7.163 16-16v0-207.62h15.79c8.837 0 16-7.163 16-16v0-96c-0.022-8.82-7.178-15.96-16-15.96 0 0 0 0 0 0v0zM304.38 89.481c10.18-17.49 21.22-30.26 31.91-36.92 5.69-3.55 11.080-5.32 16.48-5.32 5.060 0 10.13 1.54 15.48 4.63 7.89 4.54 12.66 10.47 14.58 18.11 3 12-1.82 25.090-3.45 27.72-0.24 0.37-0.51 0.81-0.81 1.31-6.385 10.577-14.815 19.291-24.805 25.814l-0.305 0.186c-16.86 11.15-38.6 17.74-64.8 19.65 1.26-14.61 4.98-36.74 15.72-55.18zM129.22 69.981c1.92-7.64 6.69-13.57 14.58-18.11 5.35-3.090 10.42-4.63 15.47-4.63 5.41 0 10.79 1.77 16.49 5.32 10.69 6.66 21.72 19.43 31.91 36.92 10.74 18.44 14.46 40.57 15.72 55.19-26.2-1.91-47.94-8.5-64.8-19.65-10.297-6.706-18.727-15.421-24.911-25.646l-0.199-0.354-0.81-1.31c-1.67-2.66-6.47-15.73-3.45-27.73zM480 241.22h-208v-64h208zM32 177.22h208v64h-208zM63.79 273.45h176.21v191.39h-176.21zM448.21 464.841h-176.21v-191.35h176.21z"></path>
</svg>
