<!-- Generated by IcoMoon.io -->
<svg version="1.1" xmlns="http://www.w3.org/2000/svg" width="512" height="512" viewBox="0 0 512 512">
<title></title>
<style type="text/css">
	path{fill:#fff;}
</style>
<g id="icomoon-ignore">
</g>
<path d="M471.8 275.9v-42.6c0-57.4-22.5-111.6-63.4-152.4-40.8-40.9-95-63.5-152.4-63.5s-111.6 22.5-152.4 63.4-63.4 95-63.4 152.4v42.6c-22.4 1.6-40.2 20.3-40.2 43v70c0 23.6 19.3 43 43 43h8.9c2 0 3.9-0.1 5.8-0.4v5.5c0 23 18.8 41.7 41.7 41.7v0c23 0 41.7-18.8 41.7-41.7v-166.2c0-23-18.8-41.7-41.7-41.7v0c-10.4 0-19.9 3.9-27.3 10.2v-5.9c0-48.9 19.2-95 54-129.8s80.9-54 129.8-54 95 19.2 129.8 54c34.8 34.8 54 80.9 54 129.8v5.9c-7.3-6.4-16.9-10.2-27.3-10.2v0c-23 0-41.7 18.8-41.7 41.7v166.1c0 23 18.8 41.7 41.7 41.7v0c23 0 41.7-18.8 41.7-41.7v-5.5c1.9 0.3 3.8 0.4 5.8 0.4h8.9c23.6 0 43-19.3 43-43v-70c0.2-22.6-17.6-41.3-40-42.8z"></path>
</svg>
