<!-- Generated by IcoMoon.io -->
<svg version="1.1" xmlns="http://www.w3.org/2000/svg" width="616" height="512" viewBox="0 0 616 512">
<title></title>
<style type="text/css">
	path{fill:#fff;}
</style>
<g id="icomoon-ignore">
</g>
<path d="M298.352 8c-8.837 0-16 7.163-16 16v0 229.32l-70.35-70.32c-2.878-2.799-6.813-4.524-11.149-4.524-8.837 0-16 7.163-16 16 0 4.335 1.724 8.267 4.524 11.149l-0.004-0.004 97.63 97.64c0.37 0.37 0.76 0.72 1.16 1.050l0.31 0.23c0.31 0.24 0.62 0.48 0.95 0.7l0.29 0.18c0.35 0.22 0.69 0.44 1.060 0.63l0.21 0.1c0.315 0.175 0.709 0.366 1.113 0.538l0.087 0.033 0.15 0.060c0.43 0.17 0.87 0.33 1.33 0.47h0.15c0.45 0.13 0.9 0.25 1.36 0.34 0.13 0 0.27 0 0.4 0.060 0.314 0.067 0.707 0.127 1.105 0.166l0.045 0.003c0.478 0.058 1.033 0.090 1.594 0.090 0.002 0 0.004 0 0.006 0h-0c0.002 0 0.003 0 0.005 0 0.558 0 1.11-0.033 1.651-0.096l-0.065 0.007c0.447-0.042 0.844-0.102 1.232-0.183l-0.072 0.012c0.13 0 0.27 0 0.4-0.060 0.46-0.090 0.91-0.21 1.35-0.34h0.16c0.45-0.14 0.89-0.3 1.33-0.47l0.14-0.060c0.41-0.17 0.81-0.36 1.21-0.57l0.21-0.1c0.36-0.19 0.71-0.41 1.060-0.63 0.090-0.060 0.19-0.11 0.28-0.18 0.33-0.22 0.64-0.46 0.95-0.7l0.31-0.23c0.421-0.344 0.8-0.687 1.159-1.049l97.671-97.671c2.541-2.821 4.095-6.573 4.095-10.69 0-8.837-7.163-16-16-16-4.118 0-7.873 1.556-10.709 4.112l0.014-0.012-70.35 70.35v-229.35c0-8.836-7.163-16-16-16v0zM602.302 327.22l-76.88-11.17-34.42-69.66c-2.673-5.323-8.089-8.913-14.345-8.913s-11.672 3.589-14.303 8.821l-0.042 0.092-34.31 69.66-76.88 11.17c-7.792 1.163-13.7 7.808-13.7 15.834 0 4.49 1.849 8.547 4.827 11.453l0.003 0.003 33.32 32.49h-239.57v-97.090c0-8.837-7.163-16-16-16s-16 7.163-16 16v0 113.090c0 8.837 7.163 16 16 16v0h276.090l-11.37 66.29c-0.146 0.81-0.228 1.743-0.228 2.694 0 8.837 7.163 16 16 16 2.72 0 5.281-0.679 7.524-1.876l-0.086 0.042 68.77-36.15 68.76 36.15c2.157 1.156 4.718 1.834 7.438 1.834 8.837 0 16-7.163 16-16 0-0.952-0.083-1.884-0.242-2.791l0.014 0.096-13.13-76.57 55.63-54.23c2.981-2.909 4.831-6.966 4.831-11.456 0-8.026-5.909-14.671-13.612-15.823l-0.088-0.011zM527.182 391.7c-2.981 2.909-4.83 6.966-4.83 11.456 0 0.955 0.083 1.891 0.245 2.8l-0.014-0.096 9.070 52.9-47.51-25c-2.159-1.158-4.723-1.837-7.445-1.837s-5.286 0.68-7.531 1.88l0.086-0.042-47.51 25 9.070-52.9c0.147-0.813 0.23-1.748 0.23-2.704 0-0.017 0-0.033 0-0.049v0.002-0.11c0-0.39 0-0.79-0.060-1.18-0.356-4.593-2.609-8.599-5.967-11.275l-0.033-0.025-37.21-36.27 53.12-7.72c5.317-0.792 9.718-4.103 12.008-8.658l0.042-0.092 23.76-48.14 23.75 48.14c2.332 4.647 6.733 7.958 11.962 8.739l0.088 0.011 53.12 7.72z"></path>
</svg>
