<!-- Generated by IcoMoon.io -->
<svg version="1.1" xmlns="http://www.w3.org/2000/svg" width="512" height="512" viewBox="0 0 512 512">
<title></title>
<style type="text/css">
	path{fill:#fff;}
</style>
<g id="icomoon-ignore">
</g>
<path d="M390.45 451.090c8.837 0 16-7.163 16-16v0-35.73c0-8.837-7.163-16-16-16s-16 7.163-16 16v0 35.73c0 8.837 7.163 16 16 16v0zM20 438.6h252.9v57.4c0 8.837 7.163 16 16 16v0h203.1c8.837 0 16-7.163 16-16v0-157.55c0-8.837-7.163-16-16-16v0h-143v-48.91c0-22.091 17.909-40 40-40v0h3c22.091 0 40 17.909 40 40v0c0 8.837 7.163 16 16 16s16-7.163 16-16v0c-0.034-39.751-32.249-71.966-71.996-72h-3.003c-0.002 0-0.003 0-0.005 0-5.398 0-10.656 0.597-15.713 1.73l0.478-0.090v-187.18c0-8.836-7.163-16-16-16v0h-337.76c-8.836 0-16 7.163-16 16v0 406.6c0 8.837 7.163 16 16 16v0zM476 480h-171v-125.55h171zM36 32h305.7v187.31c-15.17 13.235-24.7 32.601-24.7 54.192 0 0.013 0 0.026 0 0.039v-0.002 48.91h-28c-8.837 0-16 7.163-16 16v0 68.15h-237zM108.55 139.52h161.13c8.837 0 16-7.163 16-16s-7.163-16-16-16v0h-161.13c-8.837 0-16 7.163-16 16s7.163 16 16 16v0zM108.55 230.94h161.13c8.837 0 16-7.163 16-16s-7.163-16-16-16v0h-161.13c-8.837 0-16 7.163-16 16s7.163 16 16 16v0zM285.68 306.36c0-8.837-7.163-16-16-16v0h-161.13c-8.837 0-16 7.163-16 16s7.163 16 16 16v0h161.13c8.837 0 16-7.163 16-16v0z"></path>
</svg>
