<!-- Generated by IcoMoon.io -->
<svg version="1.1" xmlns="http://www.w3.org/2000/svg" width="512" height="512" viewBox="0 0 512 512">
<title></title>
<style type="text/css">
	path{fill:#fff;}
</style>
<g id="icomoon-ignore">
</g>
<path d="M256 18c131.408 0.099 237.897 106.648 237.897 238.070 0 97.963-59.169 182.106-143.719 218.642l-1.543 0.594c-27.339 11.862-59.182 18.762-92.635 18.762-131.481 0-238.067-106.587-238.067-238.067 0-98.028 59.248-182.216 143.887-218.712l1.545-0.593c27.196-11.819 58.875-18.695 92.16-18.695 0.167 0 0.334 0 0.501 0h-0.026zM256 0v0c-141.385 0-256 114.615-256 256v0c0 141.385 114.615 256 256 256v0c141.385 0 256-114.615 256-256v0c0-141.385-114.615-256-256-256zM106.5 159.97h121.45l-0.33 20.46h-121.12zM118.39 252.7h102.3v19.8h-102.3zM220.36 207.16v19.8h-97v-19.8zM219.7 388h-72.6v16.17h-22.44v-107.25h95.040zM168.2 159c-2.97-11.55-12.54-28.38-21.45-41.25l18.5-8.91c9.57 12.21 19.14 29.040 22.77 39.93zM147.1 316.39v52.47h49.83v-52.47zM405.5 371.83v23.1h-174.91v-23.1h72.6v-85.47h-61.050v-22.77h61.050v-68.97h-66.66v-23.43h162.69v23.43h-71.94v68.97h64.35v22.77h-64.35v85.47zM313.1 170.53c-5.61-14.19-19.8-36.3-33.33-52.47l19.14-10.23c13.2 15.5 28.050 36.96 34.65 50.82z"></path>
</svg>
