<!-- Generated by IcoMoon.io -->
<svg version="1.1" xmlns="http://www.w3.org/2000/svg" width="448" height="512" viewBox="0 0 448 512">
<title></title>
<style type="text/css">
	path{fill:#fff;}
</style>
<g id="icomoon-ignore">
</g>
<path d="M18.8 494.1v-476.2c0-9.9 8-17.9 17.9-17.9h71.6c9.9 0 17.9 8 17.9 17.9v476.2c0 9.9-8 17.9-17.9 17.9h-71.6c-9.9 0-17.9-8-17.9-17.9zM321.8 494.1v-476.2c0-9.9 8-17.9 17.9-17.9h71.6c9.9 0 17.9 8 17.9 17.9v476.2c0 9.9-8 17.9-17.9 17.9h-71.6c-9.9 0-17.9-8-17.9-17.9z"></path>
</svg>
