<!-- Generated by IcoMoon.io -->
<svg version="1.1" xmlns="http://www.w3.org/2000/svg" width="576" height="512" viewBox="0 0 576 512">
<title></title>
<style type="text/css">
	path{fill:#fff;}
</style>
<g id="icomoon-ignore">
</g>
<path d="M326.1 508.3l-155.8-134.7h-118.5c-8.4 0-15.2-6.8-15.2-15.2v-204.8c0-8.4 6.8-15.2 15.2-15.2h118.5l155.8-134.7c9.8-8.5 25.1-1.5 25.1 11.5v481.6c0 13-15.3 20-25.1 11.5zM421.7 384.6c-4.5 0-9-1.9-12.2-5.6-5.7-6.7-5-16.8 1.8-22.6 0.1 0 10.9-9.6 21.6-27.3 14.1-23.3 21.2-49.1 21.2-76.6 0-64.9-40.1-95-41.8-96.2l9.4-13 9.3-13c2.2 1.6 55.1 40.3 55.1 122.2 0 81.1-51.8 126.3-54 128.2-3 2.6-6.7 3.9-10.4 3.9zM459.9 457c-4.5 0-9-1.9-12.2-5.6-5.7-6.7-5-16.8 1.8-22.6 0.2-0.1 18.8-16.4 37.2-46.6 24.4-40.1 36.7-84.4 36.7-131.9 0-47.1-12.2-89.3-36.2-125.6-18.1-27.2-36.4-40.7-36.6-40.8-7.2-5.1-8.8-15.1-3.7-22.3s15.1-8.8 22.3-3.7c0.9 0.6 22.5 16.2 43.7 47.8 19.4 28.8 42.5 77.2 42.5 144.6 0 67.1-22.9 118.4-42.1 149.7-21 34.1-42.1 52.3-43 53.1-3.1 2.6-6.8 3.9-10.4 3.9z"></path>
</svg>
