<!-- Generated by IcoMoon.io -->
<svg version="1.1" xmlns="http://www.w3.org/2000/svg" width="512" height="512" viewBox="0 0 512 512">
<title></title>
<style type="text/css">
	path{fill:#939EA7;}
</style>
<g id="icomoon-ignore">
</g>
<path d="M278.65 256l228.7-228.7c6.25-6.25 6.25-16.4 0-22.65s-16.4-6.25-22.65 0l-228.7 228.7-228.7-228.65c-6.25-6.25-16.35-6.25-22.6 0s-6.25 16.4 0 22.65l228.65 228.65-228.65 228.7c-6.25 6.25-6.25 16.4 0 22.65 3.1 3.1 7.2 4.7 11.3 4.7s8.2-1.55 11.3-4.7l228.7-228.7 228.7 228.7c3.1 3.1 7.2 4.7 11.3 4.7s8.2-1.55 11.3-4.7c6.25-6.25 6.25-16.4 0-22.65l-228.65-228.7z"></path>
</svg>
