<!-- Generated by IcoMoon.io -->
<svg version="1.1" xmlns="http://www.w3.org/2000/svg" width="512" height="512" viewBox="0 0 512 512">
<title></title>
<style type="text/css">
	path{fill:#939EA7;}
</style>
<g id="icomoon-ignore">
</g>
<path d="M157.74 217.83c-8.837 0-16 7.163-16 16v0 45c0 8.837 7.163 16 16 16s16-7.163 16-16v0-45c0-8.837-7.163-16-16-16v0zM496 102.83h-480c-8.836 0-16 7.163-16 16v0 77.83c0 8.837 7.163 16 16 16v0c23.936 0 43.34 19.404 43.34 43.34s-19.404 43.34-43.34 43.34v0c-8.836 0-16 7.163-16 16v0 77.83c0 8.837 7.163 16 16 16v0h480c8.837 0 16-7.163 16-16v0-77.83c0-8.837-7.163-16-16-16v0c-23.936 0-43.34-19.404-43.34-43.34s19.404-43.34 43.34-43.34v0c8.837 0 16-7.163 16-16v0-77.83c0-8.837-7.163-16-16-16v0zM480 182.37c-34.175 7.621-59.342 37.687-59.342 73.63s25.166 66.009 58.84 73.536l0.502 0.094v47.54h-306.26v-28.34c0-8.837-7.163-16-16-16s-16 7.163-16 16v0 28.34h-109.74v-47.54c34.175-7.622 59.343-37.687 59.343-73.63s-25.166-66.008-58.84-73.536l-0.502-0.095v-47.54h109.74v29c0 8.837 7.163 16 16 16s16-7.163 16-16v0-29h306.26z"></path>
</svg>
