<!-- Generated by IcoMoon.io -->
<svg version="1.1" xmlns="http://www.w3.org/2000/svg" width="512" height="512" viewBox="0 0 512 512">
<title></title>
<style type="text/css">
	path{fill:#939EA7;}
</style>
<g id="icomoon-ignore">
</g>
<path d="M256 40c118.621 0 216 96.075 216 216 0 119.291-96.61 216-216 216-119.244 0-216-96.562-216-216 0-119.203 96.602-216 216-216zM256 8c-136.957 0-248 111.083-248 248 0 136.997 111.043 248 248 248s248-111.003 248-248c0-136.917-111.043-248-248-248zM244.51 128h22.979c6.823 0 12.274 5.682 11.99 12.5l-7 168c-0.268 6.428-5.556 11.5-11.99 11.5h-8.979c-6.433 0-11.722-5.073-11.99-11.5l-7-168c-0.283-6.818 5.167-12.5 11.99-12.5zM256 340c-15.464 0-28 12.536-28 28s12.536 28 28 28 28-12.536 28-28-12.536-28-28-28z"></path>
</svg>
