<!-- Generated by IcoMoon.io -->
<svg version="1.1" xmlns="http://www.w3.org/2000/svg" width="576" height="512" viewBox="0 0 576 512">
<title></title>
<style type="text/css">
	path{fill:#939EA7;}
</style>
<g id="icomoon-ignore">
</g>
<path d="M288 288c35.346 0 64-28.654 64-64s-28.654-64-64-64v0c-1 0-1.88 0.24-2.85 0.29 1.807 4.822 2.853 10.395 2.853 16.213 0 26.233-21.267 47.5-47.5 47.5-5.817 0-11.39-1.046-16.541-2.959l0.328 0.107c0 1-0.29 1.88-0.29 2.85 0 35.346 28.654 64 64 64v0zM572.52 241.4c-54.23-105.81-161.59-177.4-284.52-177.4s-230.32 71.64-284.52 177.41c-2.193 4.248-3.479 9.271-3.479 14.595s1.286 10.348 3.564 14.776l-0.085-0.182c54.23 105.81 161.59 177.4 284.52 177.4s230.32-71.64 284.52-177.41c2.193-4.248 3.48-9.271 3.48-14.595s-1.286-10.347-3.564-14.776l0.085 0.181zM288 96c70.692 0 128 57.308 128 128s-57.308 128-128 128c-70.692 0-128-57.308-128-128v0c0.079-70.661 57.339-127.921 127.993-128h0.007zM288 416c-107.36 0-205.46-61.31-256-160 28.965-56.044 73.612-100.545 128.123-128.556l1.657-0.773c-20.87 27.020-33.78 60.5-33.78 97.33 0 88.365 71.635 160 160 160s160-71.635 160-160v0c0-36.83-12.91-70.31-33.78-97.33 56.168 28.784 100.814 73.285 129.006 127.688l0.774 1.642c-50.53 98.69-148.64 160-256 160z"></path>
</svg>
