<!-- Generated by IcoMoon.io -->
<svg version="1.1" xmlns="http://www.w3.org/2000/svg" width="512" height="512" viewBox="0 0 512 512">
<title></title>
<style type="text/css">
	path{fill:#939EA7;}
</style>
<g id="icomoon-ignore">
</g>
<path d="M442.84 81.25c-0.22-0.25-0.44-0.49-0.68-0.72-44.553-47.475-106.898-77.798-176.336-80.278l-0.444-0.013h-0.65l-4.6-0.12c-1.3-0.070-2.66-0.12-4.13-0.12s-2.79 0-4.12 0.090l-4.6 0.12h-0.64c-69.821 2.51-132.111 32.801-176.514 80.085l-0.126 0.135c-0.3 0.29-0.59 0.6-0.86 0.91-42.797 45.546-69.090 107.033-69.090 174.662 0 64.8 24.14 123.961 63.917 168.982l-0.237-0.274 0.13 0.18c0.619 0.821 1.275 1.547 1.99 2.211l0.010 0.010c44.935 49.918 108.889 81.957 180.354 84.636l0.466 0.014h0.66l5.23 0.14c1.17 0 2.33 0.060 3.5 0.060 1.5 0 2.89-0.050 4.12-0.090l4.6-0.12h0.62c71.957-2.692 135.933-34.748 180.675-84.459l0.205-0.231c0.517-0.481 0.995-0.983 1.439-1.514l0.021-0.026 0.59-0.75c39.57-44.76 63.729-103.948 63.729-168.779 0-67.668-26.32-129.19-69.283-174.884l0.123 0.133zM431.49 394.94c-16.777-11.478-35.963-21.858-56.211-30.18l-2.089-0.76c10.265-27.152 16.94-58.548 18.551-91.274l0.029-0.726h87.65c-3.486 46.957-20.983 89.259-48.274 123.385l0.344-0.445zM80.49 394.94c-26.942-33.683-44.432-75.984-47.866-122.2l-0.044-0.74h87.65c1.641 33.452 8.314 64.847 19.284 94.144l-0.704-2.144c-22.338 9.082-41.523 19.462-59.386 31.639l1.085-0.699zM85.85 110.56c16.139 10.566 34.674 20.201 54.168 27.938l2.121 0.743c-12.238 29.675-20.122 64.053-21.882 100.040l-0.028 0.72h-87.66c3.649-49.875 23.198-94.59 53.541-129.725l-0.241 0.285zM272 50.75c20.798 19.811 38.534 42.575 52.596 67.675l0.743 1.445c-15.613 4.116-33.854 7.016-52.584 8.095l-0.757 0.035zM240 128c-19.476-1.094-37.719-3.981-55.299-8.519l1.959 0.429c14.804-26.561 32.54-49.339 53.225-69.050l0.115-0.109zM240 160v80h-87.73c1.816-33.115 9.125-64.039 21.032-92.565l-0.683 1.845c19.845 5.645 42.888 9.48 66.623 10.689l0.757 0.031zM272 160c24.493-1.24 47.534-5.075 69.599-11.25l-2.219 0.53c11.225 26.681 18.534 57.606 20.318 90.002l0.031 0.718h-87.73zM356.41 110.11c-14.794-27.883-32.322-51.87-52.767-73.020l0.087 0.090c38.524 8.534 72.079 26.055 99.584 50.281l-0.245-0.211c-13.288 8.272-28.656 15.957-44.743 22.205l-1.917 0.655zM155.58 110.11c-17.996-6.906-33.358-14.591-47.846-23.555l1.206 0.695c27.257-24.011 60.804-41.532 97.843-49.793l1.477-0.277c-20.349 21.065-37.876 45.051-51.847 71.221l-0.833 1.709zM152.27 272h87.73v70c-25.756 1.285-49.997 5.462-73.133 12.227l2.223-0.557c-9.156-24.076-15.186-51.923-16.788-80.95l-0.032-0.721zM240 374v87.24c-22.744-21.651-41.841-46.865-56.451-74.796l-0.75-1.574-0.8-1.59c17.031-4.779 36.854-8.092 57.255-9.247l0.745-0.034zM272 461.24v-87.24c21.146 1.188 40.969 4.5 59.99 9.748l-1.99-0.468-0.8 1.59c-15.358 29.509-34.455 54.726-57.082 76.269l-0.118 0.111zM272 342v-70h87.73c-1.632 29.74-7.661 57.579-17.456 83.575l0.636-1.925c-20.917-6.207-45.159-10.377-70.172-11.621l-0.738-0.029zM391.77 240c-1.796-36.713-9.687-71.093-22.681-102.844l0.751 2.073c21.615-8.474 40.15-18.109 57.495-29.417l-1.205 0.737c30.099 34.855 49.647 79.572 53.257 128.719l0.043 0.731zM102.4 418.83c14.029-9.264 30.134-17.766 47.063-24.663l1.877-0.676c1 2 2 4 3 6 15.014 28.858 33.001 53.664 54.084 75.457l-0.084-0.087c-41.42-9.257-77.305-28.915-105.992-56.095l0.102 0.095zM352.3 458.15c-13.928 6.864-30.145 12.603-47.098 16.394l-1.473 0.276c20.977-21.7 38.947-46.5 53.117-73.601l0.833-1.75c1-2 2-4 3-6 18.801 7.571 34.902 16.074 49.988 25.993l-1.058-0.654c-16.408 15.551-35.303 28.703-55.983 38.758l-1.327 0.582z"></path>
</svg>
