<!-- Generated by IcoMoon.io -->
<svg version="1.1" xmlns="http://www.w3.org/2000/svg" width="534" height="512" viewBox="0 0 534 512">
<title></title>
<style type="text/css">
	path{fill:#939EA7;}
</style>
<g id="icomoon-ignore">
</g>
<path d="M533.333 204.8c-6.4-114.133-123.733-204.8-266.666-204.8-147.2 0-266.666 96-266.666 215.466 0 108.8 101.334 199.466 231.466 213.333 8.534 1.067 13.867 8.534 12.8 16 0 0 0 0 0 0l-5.333 51.2c-1.066 7.466 4.267 14.933 12.8 16 3.2 0 5.333 0 8.533-1.067 109.867-54.4 176-109.867 215.466-157.867 7.466-8.534 30.933-41.6 35.2-51.2 10.667-18.134 17.067-38.4 20.266-59.733 1.067-5.333 2.134-10.666 2.134-16 0-6.4 0-13.867 0-21.334zM162.133 286.933h-55.466c-7.466 0-13.867-6.4-13.867-13.866v-104.534c0-7.466 6.4-13.867 13.867-13.867s13.867 6.4 13.867 13.867v90.666h41.6c7.466 0 13.867 6.4 13.867 13.866s-6.4 13.866-13.867 13.866zM215.466 165.333v110.934c0 6.4-5.333 10.666-10.666 10.666h-6.4c-6.4 0-10.667-5.334-10.667-10.666v-110.933c0-6.4 5.333-10.666 10.666-10.666h6.4c5.333 0 10.667 4.267 10.667 10.666v0zM342.4 272c0 7.466-6.4 13.866-13.866 14.933-3.2 0-6.4-1.067-9.6-4.267-1.067-1.067-56.534-73.6-56.534-73.6v62.934c0 7.466-6.4 13.866-13.867 13.866s-13.867-6.4-13.867-13.866v-103.466c0-7.466 5.333-13.867 12.8-14.934 4.267 0 8.534 1.066 10.666 4.267 1.067 1.066 56.534 72.534 56.534 72.534v-64c0-7.466 6.4-13.867 13.866-13.867s13.866 6.4 13.866 13.867v105.6zM429.866 206.934c7.466 0 13.866 6.4 13.866 13.867s-6.4 13.867-13.866 13.867h-41.6v24.533h41.6c7.466 0 13.866 6.4 13.866 13.866s-6.4 13.866-13.866 13.866h-55.466c-7.466 0-13.866-6.4-13.866-13.866v-104.534c0-7.466 6.4-13.867 13.866-13.867h55.466c7.466 0 13.866 6.4 13.866 13.867s-6.4 13.867-13.866 13.867h-41.6v24.534h41.6z"></path>
</svg>
