<!-- Generated by IcoMoon.io -->
<svg version="1.1" xmlns="http://www.w3.org/2000/svg" width="584" height="512" viewBox="0 0 584 512">
<title></title>
<style type="text/css">
	path{fill:#939EA7;}
</style>
<g id="icomoon-ignore">
</g>
<path d="M570.3 335.29l-72.14-10.48-30.66-62.13v-74c0-0.11 0-0.22 0-0.33 0-0.32 0-0.63-0.050-0.95s0-0.44-0.070-0.66-0.090-0.66-0.15-1-0.070-0.4-0.12-0.59c-0.092-0.41-0.189-0.744-0.301-1.071l0.022 0.071c-0.050-0.17-0.090-0.33-0.14-0.49-0.13-0.37-0.27-0.74-0.43-1.11-0.050-0.13-0.1-0.26-0.16-0.39-0.16-0.37-0.35-0.74-0.55-1.1-0.070-0.12-0.12-0.24-0.19-0.36-0.19-0.33-0.41-0.65-0.62-1l-0.29-0.42c-0.19-0.26-0.4-0.51-0.61-0.76s-0.28-0.37-0.44-0.54v0c-0.25-0.27-0.52-0.52-0.78-0.78-0.11-0.11-0.22-0.23-0.33-0.33v0 0l-181.75-164.74c-2.829-2.571-6.603-4.145-10.745-4.145s-7.916 1.574-10.758 4.157l0.013-0.011-182.010 164.88c-0.28 0.28-0.57 0.55-0.84 0.84v0c-0.15 0.17-0.28 0.34-0.42 0.51s-0.43 0.52-0.63 0.79-0.18 0.27-0.27 0.41c-0.22 0.32-0.44 0.65-0.64 1l-0.24 0.44c-0.2 0.37-0.39 0.73-0.56 1.11-0.060 0.12-0.1 0.26-0.16 0.39-0.15 0.36-0.3 0.73-0.43 1.11 0 0.16-0.090 0.32-0.14 0.48-0.1 0.35-0.2 0.71-0.28 1.060 0 0.19-0.080 0.39-0.11 0.58s-0.12 0.66-0.16 1 0 0.43-0.060 0.65 0 0.63 0 0.95c0 0.11 0 0.22 0 0.33v268c0 0.12 0 0.23 0 0.35 0 0.29 0 0.58 0 0.87s0 0.49 0.070 0.73 0.080 0.54 0.12 0.81 0.090 0.5 0.15 0.75 0.12 0.51 0.2 0.77 0.13 0.49 0.21 0.74l0.27 0.73c0.1 0.25 0.19 0.49 0.3 0.72s0.22 0.48 0.33 0.71 0.24 0.47 0.37 0.69 0.26 0.44 0.4 0.66 0.29 0.46 0.45 0.68 0.29 0.4 0.44 0.59 0.36 0.45 0.55 0.67l0.22 0.27c0.080 0.090 0.17 0.16 0.25 0.25s0.45 0.46 0.69 0.68 0.34 0.33 0.52 0.48l0.7 0.56 0.6 0.44c0.24 0.17 0.49 0.32 0.74 0.47s0.41 0.27 0.62 0.38 0.58 0.3 0.87 0.44l0.56 0.27c0.4 0.16 0.8 0.31 1.21 0.45l0.29 0.1c1.434 0.469 3.084 0.74 4.797 0.74 0.004 0 0.009 0 0.013 0h277.959l-2.17 12.65c-0.143 0.803-0.224 1.728-0.224 2.671 0 8.837 7.163 16 16 16 2.702 0 5.249-0.67 7.481-1.853l-0.087 0.042 64.52-33.92 64.52 33.92c2.157 1.156 4.718 1.834 7.438 1.834 8.837 0 16-7.163 16-16 0-0.952-0.083-1.884-0.242-2.791l0.014 0.096-12.25-71.85 52.2-50.88c2.981-2.909 4.831-6.966 4.831-11.456 0-8.026-5.909-14.671-13.612-15.823l-0.088-0.011zM340.2 334.22l-12.76-11.57 108.060-97.92v38.17l-30.5 61.91zM269.79 45.58l157.89 143.060-124.070 112.42-23.070-20.91c-2.829-2.571-6.603-4.145-10.745-4.145s-7.916 1.574-10.758 4.156l0.013-0.012-23.050 20.92-124.17-112.43zM212.13 322.65l-108.13 97.93v-195.86zM129.5 440.65l140.29-127.050 54.54 49.4c0.13 0.11 0.26 0.2 0.38 0.31l51.43 50.13-4.66 27.2zM498.61 396.41c-2.981 2.909-4.83 6.966-4.83 11.456 0 0.955 0.084 1.891 0.245 2.8l-0.014-0.096 8.26 48.18-43.27-22.75c-2.159-1.153-4.723-1.83-7.445-1.83s-5.286 0.677-7.532 1.872l0.087-0.042-43.27 22.75 8.26-48.18c0.147-0.813 0.23-1.749 0.23-2.704 0-4.49-1.849-8.547-4.827-11.452l-0.003-0.003-35-34.13 48.37-7c5.318-0.794 9.721-4.108 12.008-8.668l0.042-0.092 21.64-43.84 21.63 43.84c2.329 4.651 6.732 7.966 11.962 8.749l0.088 0.011 48.38 7z"></path>
</svg>
