<!-- Generated by IcoMoon.io -->
<svg version="1.1" xmlns="http://www.w3.org/2000/svg" width="512" height="512" viewBox="0 0 512 512">
<title></title>
<style type="text/css">
	path{fill:#939EA7;}
</style>
<g id="icomoon-ignore">
</g>
<path d="M256 340c-15.464 0-28 12.536-28 28s12.536 28 28 28 28-12.536 28-28-12.536-28-28-28zM263.67 316h-16c-6.627 0-12-5.373-12-12v-0.381c0-70.343 77.44-63.619 77.44-107.408 0-20.016-17.761-40.211-57.44-40.211-29.144 0-44.265 9.649-59.211 28.692-3.908 4.98-11.054 5.995-16.248 2.376l-13.134-9.15c-5.625-3.919-6.86-11.771-2.645-17.177 21.226-27.227 46.41-44.741 91.238-44.741 52.32 0 97.44 29.751 97.44 80.211 0 67.414-77.44 63.849-77.44 107.408v0.381c0 6.627-5.373 12-12 12zM256 40c118.621 0 216 96.075 216 216 0 119.291-96.61 216-216 216-119.244 0-216-96.562-216-216 0-119.203 96.602-216 216-216zM256 8c-136.957 0-248 111.083-248 248 0 136.997 111.043 248 248 248s248-111.003 248-248c0-136.917-111.043-248-248-248z"></path>
</svg>
