<!-- Generated by IcoMoon.io -->
<svg version="1.1" xmlns="http://www.w3.org/2000/svg" width="512" height="512" viewBox="0 0 512 512">
<title></title>
<style type="text/css">
	path{fill:#939EA7;}
</style>
<g id="icomoon-ignore">
</g>
<path d="M505.44 472.211l-49.348-49.248-65.264-65.314c16.866-20.87 29.579-44.293 37.837-69.668 8.808-27.026 12.262-55.154 10.31-83.632-2.002-28.478-9.359-55.855-21.822-81.379-12.962-26.426-30.83-49.699-53.252-69.168s-47.947-33.983-75.924-43.092c-27.026-8.909-55.154-12.362-83.632-10.36s-55.855 9.359-81.379 21.822c-26.426 12.962-49.699 30.88-69.168 53.252s-33.983 47.947-43.092 75.924c-8.909 27.026-12.362 55.154-10.36 83.631s9.359 55.854 21.822 81.38c12.962 26.426 30.83 49.699 53.252 69.168 39.989 34.784 91.239 53.902 144.241 53.902 50.149 0 98.996-17.267 137.985-48.697l114.562 114.512c4.404 4.454 10.31 6.906 16.616 6.957h0.050c6.256 0 12.312-2.553 16.616-7.007 8.959-9.009 8.959-23.873-0.050-32.982zM392.329 219.864c0 23.323-4.555 45.895-13.563 67.165-8.709 20.57-21.12 39.038-36.986 54.853-15.865 15.865-34.334 28.277-54.853 36.986-21.271 9.009-43.893 13.563-67.166 13.563-23.323 0-45.895-4.604-67.166-13.613-20.57-8.709-38.988-21.171-54.853-36.986-15.865-15.865-28.278-34.334-36.986-54.853-9.009-21.271-13.563-43.843-13.614-67.166 0-23.323 4.554-45.895 13.563-67.166 8.708-20.57 21.12-39.038 36.986-54.853 15.865-15.865 34.334-28.328 54.853-36.986 21.271-9.009 43.893-13.563 67.166-13.563 23.323 0 45.895 4.554 67.166 13.563 20.57 8.708 39.038 21.12 54.853 36.986 15.865 15.865 28.277 34.334 36.986 54.853 9.059 21.321 13.613 43.893 13.613 67.216z"></path>
</svg>
